<svg id="Layer_1" enable-background="new 0 0 512 512" height="512" viewBox="0 0 512 512" width="512" xmlns="http://www.w3.org/2000/svg"><g><g><path d="m331.982 77.495h-324.482v-29.995c0-22.091 17.909-40 40-40h324.482c-22.091 0-40 17.909-40 40z" fill="#f0b86c"/><g><path d="m409.478 464.5.001-98.5-30-17 30-15 .001-286.5c0-22.091-17.909-40-40-40h-324.482c22.091 0 40 17.909 40 40v86.5l30 15-30 16-.001 201 47.003 22-47.004 23v53.5c0 22.091 17.909 40 40 40h324.482c-22.091 0-40-17.909-40-40z" fill="#ffdec2"/><path d="m409.478 464.5.001-98.5-30-17 30-15 .001-286.5c0-22.091-17.909-40-40-40h-40c22.091 0 40 17.909 40 40l-.002 417c0 22.091 17.909 40 40 40h40c-22.091 0-40-17.909-40-40z" fill="#facfaa"/><path d="m162.495 444.504h324.482v19.996c0 22.091-17.909 40-40 40h-324.482c22.091 0 40-17.909 40-40z" fill="#f0b86c"/><path d="m456.976 444.505v19.995c0 22.091-17.909 40-40 40h30c22.091 0 40-17.909 40-40v-19.995z" fill="#e8a54a"/></g><g><path d="m350.712 282.625c-14.644-14.644-14.644-38.386 0-53.03l50.264-50.264c27.909-27.909 64.349-45.682 103.523-50.493-4.811 39.174-22.585 75.615-50.493 103.524l-50.264 50.264c-14.643 14.643-38.386 14.643-53.03-.001z" fill="#a0e2f7"/><path d="m504.5 128.837c-10.555 1.296-20.909 3.542-30.953 6.665-5.921 36.632-23.221 70.54-49.54 96.859l-50.265 50.265c-3.419 3.418-7.336 6.028-11.515 7.851 13.722 5.984 30.29 3.375 41.515-7.851l50.265-50.265c27.909-27.909 45.682-64.349 50.493-103.524z" fill="#88dcf7"/></g></g><g fill="#060606"><path d="m464.191 221.503c3.273 2.535 7.985 1.938 10.521-1.338 20.315-26.233 33.189-57.498 37.232-90.414.586-4.771-3.589-8.943-8.358-8.358-31.323 3.846-61.265 15.84-86.606 34.391l.001-108.284c0-26.191-21.309-47.5-47.5-47.5h-201.886c-9.385 0-9.813 15 0 15h201.886c17.921 0 32.5 14.58 32.5 32.5l-.001 120.527c-19.644 17.847-37.808 37.501-56.571 56.265-15.657 15.658-17.328 40.073-5.039 57.616l-39.992 39.775c-6.65 6.615 3.724 17.453 10.578 10.636l39.937-39.72c7.617 5.521 16.744 8.51 26.335 8.51 8.934 0 17.468-2.591 24.752-7.408v35.665l-25.854 12.927c-5.273 2.636-5.472 10.327-.343 13.233l26.196 14.846v66.634h-239.485c-4.142 0-7.5 3.358-7.5 7.5v19.994c0 17.501-13.907 31.808-31.249 32.468-17.342-.661-31.249-14.967-31.249-32.468v-48.82l42.8-20.943c5.554-2.717 5.482-10.909-.117-13.53l-42.683-19.978.002-191.729 26.029-13.882c5.276-2.815 5.174-10.651-.175-13.326l-25.854-12.927v-81.865c0-12.56-4.9-23.997-12.889-32.5h39.988c9.385 0 9.813-15 0-15 0 0-75.735.071-76.274.194-24.241 2.124-43.323 22.523-43.323 47.306v29.996c0 4.142 3.358 7.5 7.5 7.5h69.998v49.004c0 2.841 1.605 5.438 4.146 6.708l17.013 8.507-17.188 9.167c-2.444 1.304-3.971 3.848-3.971 6.618l-.001 201c0 2.911 1.684 5.559 4.321 6.793l32.812 15.357-32.929 16.113c-2.573 1.259-4.204 3.873-4.204 6.737v53.5c0 24.783 19.082 45.182 43.323 47.306.539.123 1.098.194 1.675.194h324.481c26.191 0 47.5-21.309 47.5-47.5v-19.996c0-4.142-3.357-7.5-7.5-7.5h-69.997v-71.004c0-2.701-1.452-5.193-3.803-6.525l-17.754-10.061 17.412-8.706c2.54-1.27 4.146-3.867 4.146-6.708v-53c0-.319-.026-.632-.065-.94l26.963-26.963c6.637-6.637-3.668-17.544-10.607-10.606l-34.831 34.831c-5.665 5.666-13.198 8.786-21.211 8.786-5.547 0-10.863-1.497-15.489-4.297l72.748-72.353c6.654-6.619-3.62-17.555-10.578-10.636l-72.666 72.271c-6.608-11.467-5.021-26.402 4.773-36.196l50.265-50.265c24.238-24.239 55.633-40.65 89.267-46.839-4.875 26.6-16.074 51.725-32.694 73.188-2.538 3.275-1.94 7.986 1.336 10.522zm-449.191-151.507v-22.496c0-17.501 13.907-31.808 31.249-32.468 17.343.66 31.249 14.967 31.249 32.468v22.496zm464.476 394.504c0 17.92-14.579 32.5-32.5 32.5h-289.871c7.989-8.503 12.889-19.94 12.889-32.5v-12.496h309.481v12.496z"/><path d="m171.095 97.153h161.994c4.143 0 7.5-3.358 7.5-7.5s-3.357-7.5-7.5-7.5h-161.994c-4.142 0-7.5 3.358-7.5 7.5s3.357 7.5 7.5 7.5z"/><path d="m171.095 156.771h161.994c4.143 0 7.5-3.358 7.5-7.5s-3.357-7.5-7.5-7.5h-161.994c-4.142 0-7.5 3.358-7.5 7.5s3.357 7.5 7.5 7.5z"/><path d="m171.095 216.388h121.994c4.143 0 7.5-3.358 7.5-7.5s-3.357-7.5-7.5-7.5h-121.994c-4.142 0-7.5 3.358-7.5 7.5s3.357 7.5 7.5 7.5z"/><path d="m171.095 276.005h121.994c4.143 0 7.5-3.358 7.5-7.5s-3.357-7.5-7.5-7.5h-121.994c-4.142 0-7.5 3.358-7.5 7.5s3.357 7.5 7.5 7.5z"/><path d="m171.095 335.623h71.993c4.142 0 7.5-3.358 7.5-7.5s-3.358-7.5-7.5-7.5h-71.993c-4.142 0-7.5 3.358-7.5 7.5s3.357 7.5 7.5 7.5z"/><path d="m171.095 395.24h161.994c4.143 0 7.5-3.358 7.5-7.5s-3.357-7.5-7.5-7.5h-161.994c-4.142 0-7.5 3.358-7.5 7.5s3.357 7.5 7.5 7.5z"/></g></g></svg>