<svg id="Capa_1" enable-background="new 0 0 512.002 512.002" height="512" viewBox="0 0 512.002 512.002" width="512" xmlns="http://www.w3.org/2000/svg"><g><g><path d="m316.488 81.172 60.088.663 48.767-64.334c-27.348 0-75.73 36.014-108.855 63.671z" fill="#efcb83"/><path d="m316.488 81.172c-20.643 17.235-35.365 31.227-35.365 31.227h72.284l23.169-30.564c-18.337-5.111-40.068-7.588-60.088-.663z" fill="#e9a761"/><path d="m425.344 17.501c-13.531 0-37.385 35.435-53.895 62.999l53.248 59.81s26.48-109.612.647-122.809z" fill="#ffead9"/><path d="m425.344 17.501c5.528 9.116 1.534 41.124-1.972 62.571-1.59 9.725-11.982 15.313-20.956 11.242-8.313-3.77-19.06-7.937-30.968-10.814-10.508 17.543-18.041 31.9-18.041 31.9l71.359 111.298c.001 0 52.22-206.197.578-206.197z" fill="#f4dabd"/><path d="m195.514 81.172c-33.125-27.657-81.507-63.671-108.856-63.671l49.915 65.849z" fill="#efcb83"/><path d="m230.879 112.399s-14.722-13.992-35.365-31.227c-18.348-6.347-36.294-5.345-58.94 2.177l22.021 29.05z" fill="#e9a761"/><path d="m86.658 17.501c-26 0-25.672 52.265-18.938 104.169l90.874-9.27z" fill="#ffead9"/><path d="m158.594 112.399s-49.793-94.899-71.936-94.899c10.205 17.694 21.919 43.86 28.563 59.261 3.04 7.046.275 15.242-6.414 19.003-10.298 5.791-25.946 15.067-41.087 25.905 6.642 51.19 19.515 102.029 19.515 102.029z" fill="#f4dabd"/><path d="m421.848 132.622c-25.357-16.789-54.559-32.288-84.417-44.236-23.669-9.472-47.427-14.938-81.429-14.938s-57.76 5.466-81.429 14.938c-61.767 24.718-113.247 58.591-141.701 90.97 0 0-23.397 134.411-25.25 295.145l466.88 10c-.001-132.556-26.355-300.169-52.654-351.879z" fill="#efcb83"/><path d="m504.501 494.501c0-166.359-25.37-314.492-25.37-314.492-14.282-15.734-34.189-32.095-57.283-47.386 6.299 54.456 21.45 197.918 22.586 326.772.073 8.327-6.675 15.107-15.003 15.107h-421.809c-.076 6.626-.12 13.292-.12 20h496.999z" fill="#e9a761"/><path d="m189.613 222.573h-68.05c0 14.268 6.6 27.006 16.936 35.386 0 0 9.271 5.361 17.637 5.361 22.029-.001 40.177-15.93 33.477-40.747z" fill="#ddfdea"/><path d="m189.613 222.573c-4.563 20.476-22.972 35.798-45.001 35.798-2.074 0-4.112-.149-6.113-.412 7.945 6.441 18.097 10.309 29.162 10.309 25.459 0 46.098-20.458 46.098-45.695z" fill="#beeedd"/><path d="m366.294 222.573h-68.05c0 14.268 6.6 27.006 16.936 35.386 0 0 9.271 5.361 17.637 5.361 22.03-.001 40.177-15.93 33.477-40.747z" fill="#ddfdea"/><path d="m366.294 222.573c-4.563 20.476-22.972 35.798-45.001 35.798-2.074 0-4.112-.149-6.113-.412 7.945 6.441 18.097 10.309 29.162 10.309 25.459 0 46.098-20.458 46.098-45.695z" fill="#beeedd"/></g><g><path d="m220.771 229.643c2.291.274 4.654.43 7.108.43 4.142 0 7.5-3.357 7.5-7.5s-3.358-7.5-7.5-7.5c-12.764 0-21.826-4.721-27.704-14.434-5.098-8.423-7.792-20.723-7.792-35.571 0-4.143-3.358-7.5-7.5-7.5s-7.5 3.357-7.5 7.5c0 21.942 5.192 38.914 14.869 50.005h-70.69c-4.142 0-7.5 3.357-7.5 7.5 0 29.332 24.044 53.195 53.598 53.195 27.138 0 49.614-20.125 53.111-46.125zm-53.111 31.125c-18.69 0-34.32-13.213-37.851-30.695h20.351v10.271c0 4.143 3.358 7.5 7.5 7.5s7.5-3.357 7.5-7.5v-10.271h40.351c-3.53 17.482-19.16 30.695-37.851 30.695z"/><path d="m329.145 361.98c-25.292-7.095-41.225-29.863-50.137-47.715-10.861-21.755-15.114-43.3-15.478-53.572 3.036-.665 6.818-1.783 11.084-3.676 3.786-1.68 5.494-6.111 3.813-9.897-1.68-3.786-6.111-5.493-9.897-3.813-7.323 3.249-12.495 3.354-12.512 3.355-.051-.001-5.224-.106-12.546-3.355-3.785-1.679-8.218.027-9.897 3.813-1.68 3.786.027 8.218 3.813 9.897 4.266 1.893 8.048 3.011 11.084 3.676-.364 10.272-4.617 31.818-15.478 53.572-8.912 17.851-24.845 40.62-50.137 47.715-3.988 1.119-6.314 5.26-5.195 9.247.929 3.312 3.939 5.477 7.217 5.477.67 0 1.353-.091 2.03-.28 30.581-8.58 49.239-34.895 59.505-55.458 3.882-7.776 7.065-15.707 9.587-23.318 2.522 7.611 5.705 15.542 9.587 23.318 10.267 20.564 28.924 46.879 59.505 55.458 3.992 1.116 8.128-1.207 9.247-5.196s-1.207-8.129-5.195-9.248z"/><path d="m397.94 222.573c0-4.143-3.358-7.5-7.5-7.5h-70.69c9.677-11.091 14.869-28.063 14.869-50.005 0-4.143-3.358-7.5-7.5-7.5s-7.5 3.357-7.5 7.5c0 14.849-2.694 27.148-7.792 35.571-5.878 9.713-14.94 14.434-27.704 14.434-4.142 0-7.5 3.357-7.5 7.5s3.358 7.5 7.5 7.5c2.453 0 4.817-.155 7.108-.43 3.497 26 25.973 46.125 53.11 46.125 29.555 0 53.599-23.863 53.599-53.195zm-53.598 38.195c-18.69 0-34.32-13.213-37.851-30.695h40.351v10.271c0 4.143 3.358 7.5 7.5 7.5s7.5-3.357 7.5-7.5v-10.271h20.351c-3.531 17.482-19.161 30.695-37.851 30.695z"/><path d="m248.501 180.009v42.564c0 4.143 3.358 7.5 7.5 7.5s7.5-3.357 7.5-7.5v-42.564c0-4.143-3.358-7.5-7.5-7.5s-7.5 3.357-7.5 7.5z"/><path d="m13.598 343.405c-4.134-.294-7.728 2.794-8.035 6.924-3.69 49.692-5.562 98.199-5.562 144.172 0 4.143 3.358 7.5 7.5 7.5s7.5-3.357 7.5-7.5c0-45.604 1.857-93.736 5.521-143.061.306-4.131-2.794-7.728-6.924-8.035z"/><path d="m503.112 432.738c.099 0 .198-.002.297-.006 4.139-.161 7.364-3.646 7.203-7.786-1.224-31.46-3.228-63.555-5.985-95.995 1.72-.028 3.44-.64 4.833-1.867 3.108-2.737 3.408-7.477.67-10.585-2.413-2.74-4.852-5.474-7.358-8.206-1.725-18.268-3.685-36.624-5.878-55.02-.491-4.112-4.221-7.059-8.335-6.56-4.113.49-7.05 4.222-6.56 8.335 1.436 12.05 2.774 24.193 4.02 36.363-11.318-10.4-24.989-20.903-43.531-31.755-3.574-2.093-8.169-.891-10.262 2.685-2.092 3.574-.89 8.169 2.685 10.261 24.844 14.541 40.08 28.038 53.371 42.127 3.454 37.61 5.952 75.137 7.341 110.801.157 4.039 3.481 7.208 7.489 7.208z"/><path d="m511.585 456.912c-.09-4.142-3.532-7.383-7.662-7.335-4.141.09-7.425 3.521-7.334 7.661.274 12.556.413 25.093.413 37.263 0 4.143 3.358 7.5 7.5 7.5s7.5-3.357 7.5-7.5c-.001-12.279-.141-24.926-.417-37.589z"/><path d="m79.776 262.342c-2.093-3.576-6.687-4.777-10.262-2.685-18.641 10.91-32.359 21.468-43.713 31.922 2.611-25.577 5.338-47.803 7.712-65.514 12.198-5.701 25.186-10.248 41.613-13.784 4.05-.872 6.625-4.861 5.754-8.91-.872-4.05-4.859-6.626-8.911-5.754-13.737 2.957-25.367 6.656-36.038 11.039 1.892-13.141 3.342-22.104 3.976-25.925 28.627-31.753 79.798-64.311 137.45-87.383 25.561-10.229 48.345-14.4 78.643-14.4 30.299 0 53.083 4.173 78.643 14.401 53.963 21.596 107.606 56.012 137.454 88.091.623 3.797 2.01 12.476 3.812 25.051-10.094-4.111-21.685-7.818-35.878-10.874-4.05-.867-8.039 1.705-8.911 5.754s1.704 8.038 5.753 8.91c29.46 6.343 46.336 15.365 63.827 25.643 1.194.701 2.501 1.034 3.792 1.034 2.572 0 5.076-1.324 6.473-3.701 2.099-3.572.904-8.168-2.667-10.267-5.23-3.073-10.529-6.101-16.192-9.019-3.212-23.312-5.562-37.09-5.586-37.229-.241-1.407-.879-2.717-1.839-3.774-9.827-10.826-21.995-21.772-35.844-32.41 2.711-17.153 4.617-32.573 5.718-46.298 8.174 2.113 15.9 5.054 22.862 8.828 3.642 1.974 8.194.621 10.167-3.021s.622-8.193-3.02-10.167c-8.792-4.765-18.657-8.354-29.094-10.778 1.206-31.266-2.685-51.911-11.713-62.51-4.798-5.633-11.167-8.61-18.416-8.61-22.967 0-60.196 21.177-110.658 62.921-18.258-4.814-36.902-6.974-58.685-6.974s-40.427 2.16-58.685 6.974c-50.461-41.744-87.691-62.921-110.658-62.921-6.73 0-12.747 2.586-17.397 7.479-9.78 10.288-13.937 31.129-12.685 63.63-10.454 2.424-20.335 6.017-29.14 10.788-3.642 1.974-4.994 6.525-3.02 10.167 1.973 3.643 6.524 4.994 10.167 3.021 27.247-14.767 66.164-16.804 98.003-6.153-20.362 10.103-39.198 21.143-55.915 32.72-.845-5.78-1.595-11.383-2.238-16.746-.493-4.113-4.229-7.059-8.34-6.553-4.112.493-7.046 4.228-6.553 8.34.944 7.869 2.109 16.232 3.468 24.904-13.943 10.686-26.024 21.717-35.769 32.807-.911 1.036-1.519 2.304-1.755 3.664-.047.269-2.45 14.185-5.755 38.068-5.391 2.759-10.676 5.708-16.026 8.852-3.571 2.099-4.766 6.694-2.667 10.266 1.397 2.379 3.901 3.702 6.474 3.702 1.291 0 2.599-.333 3.792-1.034 2.013-1.183 4-2.323 5.979-3.438-2.624 20.395-5.538 45.509-8.201 73.975-2.452 2.676-4.841 5.355-7.205 8.039-2.738 3.108-2.438 7.848.67 10.585 1.426 1.256 3.194 1.872 4.955 1.872 2.079 0 4.148-.859 5.631-2.543 16.29-18.494 32.347-35.308 63.962-53.812 3.576-2.092 4.778-6.686 2.686-10.26zm355.412-129.787c-17.094-11.974-36.136-23.358-56.121-33.504 18.965-6.41 40.468-8.304 60.542-5.668-1.059 14.167-2.81 28.106-4.421 39.172zm5.241-54.067c-20.603-2.509-42.424-.809-62.113 5.101 34.619-57.846 46.896-58.588 47.027-58.588 2.873 0 5.03 1.029 6.997 3.338 7.161 8.406 8.814 28.426 8.089 50.149zm-48.913-41.748c-8.944 11.612-20.015 28.278-33.683 52.166-5.833-2.615-11.711-5.119-17.616-7.482-2.809-1.124-5.594-2.165-8.371-3.158 25.767-20.789 45.17-33.661 59.67-41.526zm-219.731 44.683c-5.972 2.39-11.857 4.869-17.649 7.424-13.659-23.867-24.718-40.508-33.657-52.111 14.501 7.865 33.906 20.737 59.676 41.53-2.776.992-5.561 2.033-8.37 3.157zm-100.29-2.925c-1.097-34.842 4.85-46.699 8.638-50.684 1.85-1.945 3.863-2.813 6.526-2.813.131 0 12.408.742 47.027 58.588-19.714-5.918-41.565-7.614-62.191-5.091z"/><path d="m104.963 341.761c-3.028-2.828-7.774-2.665-10.601.362-26.493 28.364-38.089 51.099-48.564 73.811-1.735 3.761-.092 8.217 3.669 9.951 1.017.469 2.085.691 3.136.691 2.836 0 5.55-1.617 6.815-4.361 10.322-22.379 20.9-43.083 45.905-69.854 2.829-3.025 2.667-7.771-.36-10.6z"/><path d="m143.908 406.705c-3.63-1.998-8.189-.676-10.188 2.951-18.723 33.999-24.387 58.884-28.969 83.471-.759 4.072 1.927 7.988 5.999 8.747.464.087.926.128 1.382.128 3.542 0 6.692-2.52 7.365-6.127 4.515-24.229 9.69-46.895 27.362-78.982 1.999-3.63.677-8.19-2.951-10.188z"/><path d="m417.64 342.124c-2.828-3.029-7.574-3.188-10.601-.362-3.027 2.828-3.189 7.574-.361 10.601 25.004 26.771 35.583 47.475 45.905 69.854 1.266 2.745 3.979 4.361 6.815 4.361 1.051 0 2.119-.223 3.136-.691 3.761-1.734 5.404-6.19 3.669-9.951-10.474-22.714-22.07-45.448-48.563-73.812z"/><path d="m378.282 409.656c-1.999-3.628-6.559-4.949-10.188-2.951-3.628 1.998-4.95 6.559-2.952 10.188 17.672 32.088 22.847 54.754 27.362 78.982.672 3.607 3.823 6.127 7.365 6.127.456 0 .918-.041 1.382-.128 4.072-.759 6.758-4.675 5.999-8.747-4.581-24.587-10.245-49.472-28.968-83.471z"/></g></g></svg>