<svg id="Layer_1" enable-background="new 0 0 512 512" height="512" viewBox="0 0 512 512" width="512" xmlns="http://www.w3.org/2000/svg"><g><g><g><path d="m179.214 93.664-32.994-33.024c-3.845-3.848-9.059-6.01-14.496-6.01h-70.192c-11.322 0-20.501 9.187-20.501 20.52v361.7c0 11.333 9.179 20.52 20.501 20.52h422.467c11.322 0 20.501-9.187 20.501-20.52v-316.657c0-11.333-9.179-20.52-20.501-20.52h-290.289c-5.437.001-10.652-2.161-14.496-6.009z" fill="#ffc344"/><path d="m452.932 136.168-426.789-1.613v100.698l426.789 1.613z" fill="#f9f3f1"/><path d="m487.798 429.527c-9.254.025-16.829-7.672-16.829-16.935 0-76.547 0-180.97 0-257.517 0-11.333-9.179-20.52-20.501-20.52h-289.129c-5.437 0-10.652 2.162-14.496 6.01l-34.154 34.185c-3.845 3.848-9.059 6.01-14.496 6.01h-70.192c-11.322 0-20.501 9.187-20.501 20.52v235.57c0 11.333 9.179 20.52 20.501 20.52h455.998c11.322 0 20.501-9.187 20.501-20.52v-24.104s-.651 16.737-16.702 16.781z" fill="#ffe177"/><path d="m487.798 429.527c-9.254.025-16.829-7.672-16.829-16.935 0-76.547 0-180.97 0-257.517 0-11.333-9.178-20.52-20.501-20.52h-40c11.322 0 20.501 9.187 20.501 20.52v285.36c0 9.262 7.575 16.96 16.829 16.935h36.202c11.322 0 20.501-9.187 20.501-20.52v-24.104c-.001 0-.652 16.737-16.703 16.781z" fill="#ffd15b"/></g><g><path d="m62.978 243.023 314.365-63.008 35.517 169.224-313.044 65.672z" fill="#fe5694"/></g></g><g><path d="m483.999 92.174h-66.457c-4.143 0-7.5 3.357-7.5 7.5s3.357 7.5 7.5 7.5h66.457c7.169 0 13.001 5.841 13.001 13.02v292.329c-.472 5.21-3.553 9.488-9.223 9.504-4.718 0-9.309-4.89-9.309-9.435v-257.517c0-13.004-11.468-28.132-25.508-28.185h-404.429v-51.741c0-7.179 5.832-13.02 13.001-13.02h70.191c3.471 0 6.735 1.354 9.19 3.811l32.994 33.025c5.29 5.293 12.322 8.208 19.802 8.208h193.224c4.143 0 7.5-3.357 7.5-7.5s-3.357-7.5-7.5-7.5h-193.223c-3.471 0-6.735-1.354-9.19-3.811l-32.994-33.025c-5.29-5.293-12.322-8.208-19.802-8.208h-70.192c-15.439 0-28.001 12.569-28.001 28.02v51.741h-7.359c-3.798 0-7.528 3.16-7.528 6.888v41.097c-10.852 3.863-18.644 14.238-18.644 26.405v235.57c0 15.45 12.562 28.02 28.001 28.02h455.998c15.439 0 28.001-12.569 28.001-28.02v-316.657c0-15.45-12.562-28.019-28.001-28.019zm-348.886 49.882-27.729 27.395c-2.455 2.457-5.72 3.811-9.19 3.811h-64.55v-31.205h101.469zm348.886 307.814h-455.998c-7.169 0-13.001-5.841-13.001-13.02v-235.57c0-7.179 5.832-13.02 13.001-13.02h70.192c7.479 0 14.512-2.915 19.802-8.209l34.153-34.185c2.455-2.458 5.72-3.812 9.19-3.812h289.129c7.169 0 13.001 5.841 13.001 13.02v257.517c0 13.227 11.138 24.435 24.35 24.435 3.478-.01 6.527-.613 9.182-1.649v1.474c0 7.178-5.832 13.019-13.001 13.019z"/><path d="m384.684 178.475c-.846-4.028-4.775-6.622-8.813-5.813l-314.366 63.008c-4.441 1.341-6.394 4.316-5.859 8.925l36.838 171.888c.793 3.703 5.181 6.546 8.873 5.769l37.944-7.96c4.054-.85 6.65-4.826 5.8-8.88s-4.826-6.653-8.88-5.8l-30.636 6.427-33.681-157.155 299.626-60.055 32.449 154.61-238.64 50.062c-4.054.85-6.65 4.826-5.8 8.88s4.828 6.652 8.88 5.8l245.98-51.603c4.386-1.358 6.319-4.318 5.8-8.881z"/><path d="m196.286 342.811c-.85-4.054-4.828-6.652-8.88-5.8l-10.042 2.107-1.601-7.61 11.417-2.396c4.054-.85 6.65-4.826 5.8-8.88s-4.824-6.65-8.88-5.8l-18.761 3.936c-4.387 1.359-6.32 4.32-5.8 8.884l9.377 44.577c.782 3.715 5.179 6.575 8.88 5.796l18.761-3.936c4.054-.85 6.65-4.826 5.8-8.88s-4.827-6.653-8.88-5.8l-11.425 2.396-1.601-7.61 10.034-2.105c4.055-.849 6.652-4.826 5.801-8.879z"/><path d="m326.744 299.828c4.054-.85 6.65-4.825 5.8-8.88-.851-4.054-4.824-6.652-8.88-5.8l-18.762 3.936c-4.387 1.359-6.32 4.32-5.8 8.884l9.377 44.578c.782 3.715 5.179 6.575 8.88 5.796l18.762-3.936c4.054-.85 6.65-4.825 5.8-8.88-.85-4.054-4.827-6.651-8.88-5.8l-11.425 2.396-1.601-7.611 10.034-2.105c4.054-.85 6.65-4.826 5.8-8.88s-4.826-6.65-8.88-5.8l-10.042 2.107-1.601-7.61z"/><path d="m229.566 320.004c3.029-.637 6.141-.355 8.996.809 3.832 1.563 8.213-.272 9.778-4.108 1.566-3.834-.273-8.213-4.108-9.778-5.634-2.302-11.769-2.854-17.745-1.603-16.127 3.383-26.933 19.939-23.536 36.092 3.41 16.21 19.873 26.972 36.078 23.577 7.602-1.594 14.219-6.248 17.896-13.128 1.951-3.653.57-8.197-3.084-10.148-3.656-1.952-8.197-.57-10.148 3.084-1.542 2.896-4.123 4.733-7.743 5.512-8.338 1.745-16.562-3.625-18.319-11.984-1.738-8.255 3.672-16.592 11.935-18.325z"/><path d="m141.277 370.176c-3.986.836-8.144.047-11.115-2.112-3.353-2.435-8.042-1.691-10.476 1.661-2.435 3.352-1.69 8.042 1.661 10.476 6.322 4.591 15.398 6.254 23.01 4.655 10.3-2.16 17.568-10.619 17.284-20.112-.216-7.221-5.185-15.637-18.481-17.604.406.06-13.347-1.071-13.5-3.466-.065-1.018.627-1.999 1.901-2.695 5.056-2.762 11.08.173 11.314.289 3.64 1.915 8.147.536 10.096-3.093 1.959-3.649.588-8.196-3.062-10.155-4.854-2.605-15.695-5.582-25.537-.206-6.414 3.502-10.124 9.947-9.683 16.822.942 14.651 15.263 15.712 26.273 17.342 2.589.384 5.632 1.456 5.685 3.216.048 1.543-1.627 4.197-5.37 4.982z"/><path d="m377.278 281.348c-.851-4.054-4.824-6.65-8.88-5.8l-24.816 5.206c-4.054.85-6.65 4.826-5.8 8.88.78 3.717 5.178 6.579 8.88 5.8l5.021-1.053 7.921 37.654c.782 3.719 5.181 6.574 8.884 5.796 4.054-.854 6.648-4.83 5.796-8.884l-7.919-37.646 5.114-1.073c4.053-.85 6.65-4.827 5.799-8.88z"/><path d="m260.6 298.165c-4.054.854-6.648 4.83-5.796 8.884l9.463 44.988c1.96 9.32 16.688 6.461 14.68-3.088l-1.717-8.162 14.178 10.614c3.707 2.411 7.206 1.908 10.498-1.51 2.482-3.315 1.807-8.016-1.51-10.498l-12.124-9.076c1.864-1.335 3.515-2.97 4.854-4.89 3.092-4.434 4.196-9.714 3.112-14.87h-.001c-2.206-10.491-12.825-17.176-23.678-14.898l-11.94 2.505c-.007-.001-.013 0-.019.001zm15.039 12.172c2.668-.554 5.432.987 5.92 3.307.125 2.833-1.235 4.633-4.081 5.397-1.105.231-2.789.591-4.544.967l-1.865-8.712z"/><path d="m186.517 238.088-24.816 5.206c-4.054.85-6.65 4.826-5.8 8.88.78 3.717 5.178 6.579 8.88 5.8l5.021-1.053 7.92 37.653c.782 3.719 5.181 6.574 8.884 5.796 4.054-.854 6.648-4.83 5.796-8.884l-7.919-37.645 5.114-1.073c4.054-.85 6.65-4.826 5.8-8.88s-4.826-6.654-8.88-5.8z"/><path d="m279.53 218.571-12.5 2.622c-4.006.819-6.65 4.895-5.812 8.886l9.464 44.988c.783 3.719 5.181 6.574 8.884 5.796 4.054-.854 6.648-4.83 5.796-8.884l-2.574-12.237c1.98-.425 3.922-.84 5.163-1.101 5.329-1.117 9.944-4.237 12.997-8.786 3.104-4.627 4.191-10.134 3.061-15.507l.001.001c-2.324-11.043-13.305-18.12-24.48-15.778zm8.962 22.927c-.858 1.279-2.144 2.155-3.619 2.465-1.232.258-3.148.667-5.111 1.089l-2.294-10.722 5.142-1.078c3.031-.64 6.109 1.279 6.721 4.187 0 0 .001 0 .001.001.391 1.861-.358 3.341-.84 4.058z"/><path d="m222.866 230.461c-16.127 3.381-26.934 19.939-23.537 36.091 3.409 16.205 19.875 26.979 36.079 23.577 16.127-3.383 26.933-19.939 23.536-36.092-3.46-16.448-19.652-27.028-36.078-23.576zm19.221 38.31c-2.255 3.459-5.721 5.83-9.759 6.678-8.343 1.749-16.562-3.626-18.319-11.985-1.738-8.254 3.673-16.589 11.937-18.323 8.208-1.717 16.579 3.709 18.319 11.984.852 4.049.078 8.186-2.178 11.646z"/></g></g></svg>