<svg id="Capa_1" enable-background="new 0 0 512 512" height="512" viewBox="0 0 512 512" width="512" xmlns="http://www.w3.org/2000/svg"><g><g><path d="m99.834 477c-16.569 0-30-13.431-30-30s13.431-30 30-30h312.332c16.569 0 30-13.431 30-30v30 30c0 16.569-13.431 30-30 30z" fill="#e3dfe3"/><path d="m412.166 459h-312.332c-13.433 0-24.801-8.829-28.624-21-.893 2.841-1.376 5.864-1.376 9 0 16.569 13.431 30 30 30h312.332c16.569 0 30-13.431 30-30v-18c0 16.569-13.431 30-30 30z" fill="#d0ced0"/><path d="m412.166 8h-297.176v409h297.175c16.569 0 30-13.431 30-30v-349c.001-16.568-13.43-30-29.999-30z" fill="#f9da86"/><path d="m99.834 417h15.157v-409h-15.157c-16.569 0-30 13.432-30 30v409c0-16.569 13.431-30 30-30z" fill="#fc686c"/><path d="m412.166 399h-297.175v18h297.175c16.569 0 30-13.431 30-30v-18c0 16.569-13.431 30-30 30z" fill="#f1c976"/><path d="m69.834 429v18c0-16.569 13.431-30 30-30h15.157v-18h-15.157c-16.569 0-30 13.431-30 30z" fill="#ec6267"/><path d="m212.034 504-30.371-18-30.37 18v-57h60.741z" fill="#e74d4b"/><path d="m151.293 447h60.741v18h-60.741z" fill="#d63b3e"/></g><g><path d="m283.615 223.009v48.778c0 4.15 3.364 7.515 7.514 7.515 4.151 0 7.515-3.364 7.515-7.515v-48.778c0-4.15-3.364-7.514-7.515-7.514-4.15 0-7.514 3.364-7.514 7.514z"/><path d="m400.538 230.746c4.151 0 7.514-3.364 7.514-7.514s-3.364-7.514-7.514-7.514h-20.365c-4.151 0-7.514 3.364-7.514 7.514v48.332c0 4.15 3.364 7.514 7.514 7.514h20.365c4.151 0 7.514-3.364 7.514-7.514s-3.364-7.514-7.514-7.514h-12.851v-9.137h11.349c4.151 0 7.514-3.364 7.514-7.515s-3.364-7.514-7.514-7.514h-11.349v-9.137h12.851z"/><path d="m314.296 276.399c1.414 1.404 3.329 2.189 5.322 2.181.406-.001 9.975-.039 13.806-.105 15.127-.264 26.106-13.334 26.106-31.077 0-18.651-10.701-31.182-26.629-31.182h-13.407c-1.995 0-3.909.793-5.319 2.206-1.409 1.412-2.199 3.327-2.196 5.323v.033.002 46.517c.047 2.241.653 4.506 2.317 6.102zm18.604-45.154c10.764 0 11.6 12.364 11.6 16.153 0 7.89-3.506 15.914-11.339 16.05-1.432.025-6.083.063-6.083.063l-.057-32.265h5.879z"/><path d="m179.531 230.524c3.382 0 6.643.995 9.429 2.878 3.439 2.323 8.11 1.419 10.433-2.02s1.419-8.11-2.021-10.434c-5.28-3.567-11.45-5.453-17.842-5.453-17.592 0-31.903 14.312-31.903 31.903s14.312 31.903 31.903 31.903c16.82 0 28.568-13.119 28.568-31.903 0-4.15-3.364-7.514-7.514-7.514h-14.592c-4.151 0-7.515 3.364-7.515 7.514s3.364 7.515 7.515 7.515h5.952c-1.718 5.232-5.545 9.36-12.414 9.36-9.304 0-16.874-7.57-16.874-16.874s7.571-16.875 16.875-16.875z"/><path d="m228.877 215.495c-4.151 0-7.514 3.364-7.514 7.514v33.565c-.502 12.173 11.722 22.988 24.186 22.727 12.727.25 25.225-10.357 24.736-22.763v-33.529c0-4.15-3.364-7.514-7.514-7.514s-7.514 3.364-7.514 7.514v33.529c.887 3.036-5.072 8.228-9.726 7.734-4.346.301-9.76-4.268-9.139-7.698v-33.565c0-4.15-3.364-7.514-7.515-7.514z"/><path d="m321.609 184.515c4.151 0 7.514-3.364 7.514-7.514s-3.364-7.514-7.514-7.514h-12.851v-9.138h11.349c4.151 0 7.514-3.364 7.514-7.514s-3.364-7.515-7.514-7.515h-11.349v-9.137h12.851c4.151 0 7.514-3.364 7.514-7.514s-3.364-7.515-7.514-7.515h-20.365c-4.151 0-7.515 3.364-7.515 7.515v48.331c0 4.15 3.364 7.514 7.515 7.514h20.365z"/><path d="m279.792 167.971c1.316-7.365-1.957-16.961-15.084-21.804-5.745-2.118-11.108-4.42-13.006-5.248-.581-.549-.632-1.243-.558-1.761.179-1.251 1.231-2.254 2.885-2.752 6.106-1.84 11.907 2.677 12.12 2.845 3.174 2.625 7.882 2.204 10.539-.957 2.67-3.177 2.26-7.917-.917-10.588-4.406-3.704-14.855-9.072-26.077-5.691-7.268 2.189-12.413 7.939-13.427 15.007-1.016 6.997 2.322 14.003 8.587 17.304.284.127 7.043 3.135 14.651 5.942 2.9 1.07 5.866 2.961 5.491 5.062-.316 1.766-2.798 4.378-7.126 4.378-4.455 0-8.728-1.78-11.429-4.762-2.785-3.075-7.538-3.31-10.613-.523-3.076 2.787-3.31 7.538-.523 10.614 5.584 6.164 13.81 9.7 22.566 9.7 5.261 0 10.354-1.676 14.339-4.72 4.056-3.096 6.748-7.373 7.582-12.046z"/><path d="m220.203 161.974v-33.53c0-4.15-3.364-7.514-7.514-7.514-4.151 0-7.515 3.364-7.515 7.514v33.53c.879 3.044-5.051 8.211-9.725 7.734-4.346.3-9.761-4.268-9.14-7.699v-33.565c0-4.15-3.364-7.514-7.515-7.514s-7.514 3.364-7.514 7.514v33.565c-.5 12.174 11.717 22.985 24.183 22.728 12.729.251 25.23-10.356 24.74-22.763z"/><path d="m342.998 177.223c0 4.15 3.364 7.515 7.514 7.515s7.514-3.364 7.514-7.515v-10.053l13.217 15.017c2.751 3.124 7.502 3.41 10.605.676 3.115-2.742 3.418-7.49.676-10.605l-11.002-12.5c7.553-3.047 12.875-10.251 12.875-18.637 0-11.133-9.379-20.191-20.909-20.191h-12.962c-.003 0-.005 0-.008 0s-.005 0-.008 0c-4.151 0-7.514 3.364-7.514 7.514v48.779zm20.493-41.264c3.132 0 5.88 2.412 5.88 5.162 0 2.798-2.693 5.162-5.88 5.162-1.297 0-5.399.017-5.399.017l-.026-10.341z"/><path d="m412.468 0h-46.927c-4.151 0-7.514 3.364-7.514 7.515s3.364 7.515 7.514 7.515h46.927c12.43 0 22.543 10.113 22.543 22.543v349.675c0 12.431-10.113 22.543-22.543 22.543h-185.49c-4.151 0-7.514 3.364-7.514 7.515 0 4.15 3.364 7.514 7.514 7.514h185.49c8.452 0 16.259-2.807 22.543-7.535v.02c0 12.431-10.113 22.543-22.543 22.543h-297.75c-4.151 0-7.514 3.364-7.514 7.514s3.364 7.514 7.514 7.514h28.858v15.029h-44.044c-12.43 0-22.543-10.113-22.543-22.543s10.113-22.543 22.543-22.543h97.388c4.151 0 7.515-3.364 7.515-7.514s-3.364-7.515-7.515-7.515h-74.688v-394.761h213.251c4.151 0 7.514-3.364 7.514-7.515s-3.363-7.514-7.514-7.514h-235.951c-20.718 0-37.572 16.855-37.572 37.572v409.791c0 20.718 16.855 37.573 37.572 37.573h44.044v19.538c-.176 5.644 6.58 9.491 11.346 6.465l26.597-15.764 26.598 15.764c4.766 3.028 11.522-.822 11.346-6.465v-19.538h116.02c4.151 0 7.514-3.364 7.514-7.514s-3.364-7.515-7.514-7.515h-116.02v-15.029h193.004c8.452 0 16.259-2.807 22.543-7.535v.021c0 12.431-10.113 22.543-22.543 22.543h-46.927c-4.151 0-7.514 3.364-7.514 7.515 0 4.15 3.364 7.514 7.514 7.514h46.927c20.718 0 37.572-16.855 37.572-37.573v-409.791c.001-20.717-16.853-37.572-37.571-37.572zm-335.479 37.572c0-12.431 10.113-22.543 22.543-22.543h7.671v394.762h-7.671c-8.451 0-16.26 2.805-22.543 7.532zm127.446 453.713-19.084-11.311c-1.182-.7-2.507-1.05-3.832-1.05s-2.651.35-3.832 1.05l-19.083 11.31v-36.407h45.83v36.408z"/></g></g></svg>