<svg id="Capa_1" enable-background="new 0 0 512.874 512.874" height="512" viewBox="0 0 512.874 512.874" width="512" xmlns="http://www.w3.org/2000/svg"><g><g><g><path d="m410.863 453.071h-392.773c-5.849 0-10.59-4.741-10.59-10.59v-253.683c0-5.849 4.741-10.59 10.59-10.59h392.773c5.849 0 10.59 4.741 10.59 10.59v253.683c.001 5.848-4.741 10.59-10.59 10.59z" fill="#fee45a"/></g><g><path d="m421.457 188.797v253.68c0 5.85-4.74 10.59-10.59 10.59h-20c5.85 0 10.59-4.74 10.59-10.59v-253.68c0-5.85-4.74-10.59-10.59-10.59h20c5.85 0 10.59 4.74 10.59 10.59z" fill="#fed402"/></g><g><path d="m22.14 453.071 187.375-148.132c2.908-2.299 7.015-2.299 9.923 0l187.375 148.132z" fill="#fed402"/></g><g><path d="m406.817 453.067h-33.5l-175.59-138.81 11.79-9.32c2.91-2.3 7.01-2.3 9.92 0z" fill="#fac600"/></g><g><path d="m22.14 178.207 187.375 198.129c2.908 2.409 7.015 2.409 9.923 0l187.375-198.129z" fill="#fef0ae"/></g><g><path d="m406.808 178.207-187.37 198.125c-2.91 2.41-7.02 2.41-9.92 0l-8.56-9.042 178.82-189.083z" fill="#fee97d"/></g></g><g><circle cx="416.142" cy="149.036" fill="#8ac9fe" r="89.233"/></g><g><path d="m505.377 149.037c0 49.28-39.95 89.23-89.24 89.23-18.78 0-36.21-5.8-50.58-15.71 9.61 3.54 20.01 5.47 30.85 5.47 49.29 0 89.24-39.95 89.24-89.23 0-30.5-15.31-57.43-38.66-73.52 34.09 12.56 58.39 45.32 58.39 83.76z" fill="#60b7ff"/></g><g><g><path d="m416.142 52.303c-53.339 0-96.733 43.395-96.733 96.733 0 7.448.848 14.702 2.449 21.671h-303.768c-9.975 0-18.09 8.115-18.09 18.09v175.828c0 4.143 3.358 7.5 7.5 7.5s7.5-3.357 7.5-7.5v-175.828c0-1.704 1.386-3.09 3.09-3.09h.82l140.889 148.975-140.266 110.889h-1.443c-1.704 0-3.09-1.386-3.09-3.09v-43.244c0-4.143-3.358-7.5-7.5-7.5s-7.5 3.357-7.5 7.5v43.244c0 9.975 8.115 18.09 18.09 18.09h392.773c9.976 0 18.091-8.115 18.091-18.09v-197.579c21.864-2.95 42.363-13.358 57.621-29.561 2.84-3.016 2.697-7.762-.318-10.602-3.014-2.839-7.761-2.699-10.602.318-15.614 16.58-36.75 25.711-59.514 25.711-45.068 0-81.733-36.665-81.733-81.732 0-45.068 36.665-81.733 81.733-81.733 45.067 0 81.732 36.665 81.732 81.733 0 9.928-1.758 19.626-5.225 28.822-1.46 3.876.497 8.203 4.373 9.663 3.88 1.465 8.203-.497 9.663-4.372 4.106-10.895 6.188-22.372 6.188-34.113.002-53.338-43.392-96.733-96.73-96.733zm-372.421 393.268 126.426-99.948 33.92 35.866c.208.221.431.429.664.622 2.824 2.34 6.285 3.509 9.746 3.509s6.922-1.17 9.746-3.509c.234-.193.456-.401.665-.622l33.92-35.866 126.426 99.948zm322.61-213.642c13.974 8.428 30.24 13.425 47.624 13.812v196.74c0 1.704-1.387 3.09-3.091 3.09h-1.443l-140.267-110.889zm-12.315-8.809-139.515 147.521c-.015.002-.032.002-.049 0l-174.896-184.933h287.079c6.002 14.595 15.471 27.409 27.381 37.412z"/></g></g><path d="m435.495 113.8c-.014 0-.027 0-.041 0-3.018 0-5.618 1.789-6.806 4.365-4.234-2.798-9.221-4.365-14.707-4.365-17.185 0-30.646 15.219-30.646 34.647 0 19.754 13.483 35.825 30.058 35.825 6.638 0 12.696-2.556 17.572-6.917.875 1.445 1.897 2.799 3.093 4.001 3.664 3.683 8.396 5.71 13.324 5.71 13.88 0 22.655-9.63 26.238-18.643 5.42-13.628 6.389-25.129 3.142-37.294-.021-.077-.043-.155-.066-.232-4.899-16.233-15.86-29.525-30.865-37.427-15.001-7.901-32.168-9.419-48.336-4.27-15.324 4.877-28.071 15.392-35.895 29.605-7.826 14.22-9.884 30.614-5.794 46.165 7.058 26.833 31.324 46.109 59.013 46.876.071.002.142.003.212.003 4.046 0 7.381-3.223 7.493-7.292.114-4.141-3.149-7.591-7.289-7.705-21.075-.584-39.548-15.263-44.923-35.697-3.106-11.813-1.533-24.284 4.429-35.116s15.658-18.839 27.304-22.546c12.31-3.918 25.378-2.766 36.797 3.248 11.386 5.996 19.713 16.069 23.46 28.374 2.355 8.922 1.569 17.232-2.618 27.765-1.099 2.762-4.496 9.186-12.301 9.186-1.225 0-2.212-.809-2.691-1.29-1.221-1.228-1.944-3.041-1.936-4.85v-44.586c.021-4.141-3.078-7.517-7.221-7.54zm-22.142 55.473c-7.241 0-15.058-7.962-15.058-20.825 0-12.299 7.955-19.647 15.646-19.647 8.09 0 13.755 7.852 13.871 19.131l-.004.779c-.162 11.375-6.578 20.562-14.455 20.562z"/></g></svg>