<svg xmlns="http://www.w3.org/2000/svg" version="1.1" xmlns:xlink="http://www.w3.org/1999/xlink" width="512" height="512" x="0" y="0" viewBox="0 0 512.001 512.001" style="enable-background:new 0 0 512 512" xml:space="preserve" class=""><g><path fill="#d19a6e" d="M363.131 369.989H148.87v-34.306c0-28.432 23.048-51.48 51.48-51.48h111.302c28.432 0 51.48 23.048 51.48 51.48v34.306z" opacity="1" data-original="#d19a6e"></path><path fill="#c38c66" d="M311.651 284.203h-21.852c28.432 0 51.48 23.048 51.48 51.48v34.307h21.852v-34.307c0-28.432-23.048-51.48-51.48-51.48z" opacity="1" data-original="#c38c66"></path><path fill="#95d6a4" d="M408.56 356.2v148.3H103.44V356.2l45.43-8.35 69.861-12.84h74.54l48.01 8.82 21.849 4.02 23.581 4.33z" opacity="1" data-original="#95d6a4"></path><path fill="#78c2a4" d="M386.711 352.18V504.5h-45.43V343.83l21.849 4.02z" opacity="1" data-original="#78c2a4"></path><path fill="#d19a6e" d="m103.435 356.201-26.46 6.449a62.151 62.151 0 0 0-42.623 50.432L21.601 504.5h81.834z" opacity="1" data-original="#d19a6e"></path><path fill="#c38c66" d="M81.583 361.527V504.5h21.852V356.201z" opacity="1" data-original="#c38c66"></path><path fill="#d19a6e" d="m408.566 356.201 26.46 6.449a62.151 62.151 0 0 1 42.623 50.432L490.4 504.5h-81.834z" opacity="1" data-original="#d19a6e"></path><path fill="#c38c66" d="M477.649 413.081a62.151 62.151 0 0 0-42.623-50.432l-26.46-6.449v5.326l4.608 1.123a62.151 62.151 0 0 1 42.623 50.432l12.751 91.419H490.4z" opacity="1" data-original="#c38c66"></path><path fill="#ffe5c2" d="M360.766 76.864v154.145c0 29.375-23.818 53.193-53.193 53.193H204.429c-29.375 0-53.193-23.818-53.193-53.193V76.864z" opacity="1" data-original="#ffe5c2"></path><path fill="#fed2a4" d="M338.913 76.864v154.145c0 29.375-23.818 53.193-53.193 53.193h21.852c29.375 0 53.193-23.818 53.193-53.193V76.864z" opacity="1" data-original="#fed2a4"></path><path fill="#ffe5c2" d="M151.229 203.915h-24.671c-11.606 0-21.014-9.408-21.014-21.014V161.65c0-11.606 9.408-21.014 21.014-21.014h24.671z" opacity="1" data-original="#ffe5c2"></path><path fill="#fed2a4" d="M129.377 140.635h21.852v63.28h-21.852z" opacity="1" data-original="#fed2a4"></path><path fill="#ffe5c2" d="M385.443 203.915h-24.671v-63.28h24.671c11.606 0 21.014 9.408 21.014 21.014v21.252c0 11.606-9.408 21.014-21.014 21.014z" opacity="1" data-original="#ffe5c2"></path><path fill="#fed2a4" d="M385.443 140.635h-21.852c11.606 0 21.014 9.408 21.014 21.014v21.252c0 11.606-9.408 21.014-21.014 21.014h21.852c11.606 0 21.014-9.408 21.014-21.014V161.65c0-11.606-9.408-21.015-21.014-21.015z" opacity="1" data-original="#fed2a4"></path><path fill="#ffe5c2" d="M218.734 271.279h74.533v63.728L256 360.928l-37.266-25.921z" opacity="1" data-original="#ffe5c2"></path><path fill="#fed2a4" d="M271.415 271.279v63.728l-26.341 18.321 10.926 7.6 37.267-25.921v-63.728z" opacity="1" data-original="#fed2a4"></path><path fill="#95d6a4" d="M218.734 335.007v-18.903h-10.808c-14.136 0-25.595 11.459-25.595 25.595l28.82 54.457c3.528 6.667 12.792 7.4 17.326 1.372l27.523-36.6z" opacity="1" data-original="#95d6a4"></path><path fill="#78c2a4" d="M218.734 335.007v-18.903h-10.808a25.48 25.48 0 0 0-11.045 2.501v16.403l37.267 25.921-17.708 23.66c-2.32 3.085-5.876 4.387-9.271 4.042l3.982 7.525c3.528 6.667 12.792 7.4 17.326 1.372l27.523-36.6z" opacity="1" data-original="#78c2a4"></path><path fill="#95d6a4" d="M293.267 335.007v-18.903h10.808c14.136 0 25.595 11.459 25.595 25.595l-28.82 54.457c-3.528 6.667-12.792 7.4-17.326 1.372L256 360.928z" opacity="1" data-original="#95d6a4"></path><path fill="#78c2a4" d="M304.075 316.103h-10.808v2.5c8.606 4.123 14.55 12.914 14.55 23.094L284.73 385.7a10.156 10.156 0 0 1-6.286 5.072l5.08 6.755c4.534 6.028 13.797 5.295 17.326-1.372l28.82-54.456c0-14.137-11.459-25.596-25.595-25.596z" opacity="1" data-original="#78c2a4"></path><path fill="#414141" d="M360.776 76.436v52.653h-21.461c-7.423 0-13.44-6.017-13.44-13.44 0-7.423-6.017-13.44-13.44-13.44H199.566c-7.423 0-13.44 6.017-13.44 13.44 0 7.423-6.017 13.44-13.44 13.44h-21.461V25.935c0-10.186 8.259-18.435 18.435-18.435h46.576a18.429 18.429 0 0 1 14.774 7.402l13.102 17.548h72.678c24.293 0 43.986 19.693 43.986 43.986z" opacity="1" data-original="#5d5360" class=""></path><g fill="#4b3f4e"><path d="M164.274 115.649c0 7.291-5.809 13.211-13.049 13.42v.02h21.461c7.423 0 13.44-6.017 13.44-13.44s6.017-13.44 13.44-13.44h-21.852c-7.423 0-13.44 6.017-13.44 13.44zM209.157 14.902 222.26 32.45h21.852L231.01 14.902A18.426 18.426 0 0 0 216.236 7.5h-21.852a18.427 18.427 0 0 1 14.773 7.402zM316.79 32.45h-21.852c24.293 0 43.986 19.693 43.986 43.986v52.633c.131.004.259.02.391.02h21.461V76.436c0-24.293-19.693-43.986-43.986-43.986z" fill="#282828" opacity="1" data-original="#4b3f4e" class=""></path></g><path fill="#414141" d="M360.766 226.982v4.027c0 29.375-23.818 53.193-53.193 53.193H204.429c-29.375 0-53.193-23.818-53.193-53.193v-4.027l79.367-31.098a69.648 69.648 0 0 1 50.828 0z" opacity="1" data-original="#5d5360" class=""></path><path fill="#282828" d="M281.43 195.884a69.607 69.607 0 0 0-36.337-3.922 69.58 69.58 0 0 1 14.485 3.922l79.336 31.098v4.028c0 29.375-23.818 53.193-53.193 53.193h21.852c29.375 0 53.193-23.818 53.193-53.193v-4.028z" opacity="1" data-original="#4b3f4e" class=""></path><path fill="#d19a6e" d="M408.565 356.197V504.5h-45.434V347.847z" opacity="1" data-original="#d19a6e"></path><path fill="#c38c66" d="M363.131 347.847v4.016l23.582 4.334V504.5h21.852V356.197z" opacity="1" data-original="#c38c66"></path><path fill="#d19a6e" d="M148.87 347.847V504.5h-45.434V356.197z" opacity="1" data-original="#d19a6e"></path><path fill="#c38c66" d="M127.017 351.863V504.5h21.853V347.847z" opacity="1" data-original="#c38c66"></path><path d="M103.435 418.673a7.5 7.5 0 0 0-7.5 7.5V504.5a7.5 7.5 0 0 0 15 0v-78.327a7.5 7.5 0 0 0-7.5-7.5zM408.566 422.85a7.5 7.5 0 0 0-7.5 7.5v74.15a7.5 7.5 0 0 0 15 0v-74.15a7.5 7.5 0 0 0-7.5-7.5zM497.828 503.464l-12.754-91.441c-3.581-25.775-22.834-48.957-48.272-56.66l-10.106-2.463c-4.027-.981-8.082 1.486-9.062 5.511s1.486 8.082 5.511 9.062l9.842 2.399c19.707 6.396 34.312 23.745 37.235 44.245l12.75 91.419a7.502 7.502 0 0 0 8.464 6.392 7.5 7.5 0 0 0 6.392-8.464zM195.394 152.156a7.5 7.5 0 0 0-7.5 7.5v13.501a7.5 7.5 0 0 0 15 0v-13.501a7.5 7.5 0 0 0-7.5-7.5zM316.607 180.657a7.5 7.5 0 0 0 7.5-7.5v-13.501a7.5 7.5 0 0 0-15 0v13.501a7.5 7.5 0 0 0 7.5 7.5zM256 247.44c11.236 0 21.428-5.739 27.264-15.353a7.5 7.5 0 0 0-12.822-7.784c-3.093 5.095-8.492 8.137-14.441 8.137s-11.349-3.042-14.441-8.137a7.5 7.5 0 1 0-12.822 7.784c5.835 9.614 16.027 15.353 27.262 15.353z" fill="#000000" opacity="1" data-original="#000000" class=""></path><path d="M391.943 345.517 370.63 341.6v-5.919c0-22.851-13.071-42.693-32.121-52.483 17.799-10.591 29.757-30.016 29.757-52.188v-19.594h17.177c15.723 0 28.514-12.792 28.514-28.514V161.65c0-15.723-12.792-28.515-28.514-28.515h-17.177l.01-56.699c0-28.389-23.097-51.486-51.486-51.486h-68.918L237.02 10.417C232.153 3.894 224.383 0 216.235 0H169.66c-14.3 0-25.935 11.634-25.935 25.935l.01 107.201h-17.177c-15.723 0-28.514 12.792-28.514 28.515v21.251c0 15.723 12.792 28.514 28.514 28.514h17.177v19.594c0 22.173 11.958 41.597 29.757 52.188-19.05 9.789-32.121 29.632-32.121 52.483v5.919L75.2 355.363c-24.907 7.578-44.663 30.351-48.276 56.682l-12.75 91.419a7.5 7.5 0 1 0 14.856 2.072l12.747-91.396c2.927-20.522 17.532-37.872 37.238-44.268l62.355-13.018V504.5a7.5 7.5 0 0 0 15 0V354.097l21.907-4.026 26.246 49.592c5.227 10.478 21.936 13.216 29.949 2.371l14.029-18.655V504.5a7.5 7.5 0 0 0 15 0V383.379l14.029 18.655c6.695 9.534 23.904 9.528 29.949-2.371l26.246-49.592 21.907 4.026V504.5a7.5 7.5 0 0 0 15 0V356.851l18.6 3.419c4.074.753 7.983-1.946 8.732-6.021a7.5 7.5 0 0 0-6.021-8.732zm-23.671-197.382h17.171c7.452 0 13.514 6.062 13.514 13.515v21.251c0 7.452-6.062 13.514-13.514 13.514h-17.171zm-224.543 48.281h-17.171c-7.452 0-13.514-6.062-13.514-13.514V161.65c0-7.452 6.062-13.515 13.514-13.515h17.171zM311.65 291.7c25.204-.142 45.492 21.811 43.98 47.146l-19.08-3.507c-2.948-16.049-18.658-28.048-35.78-26.736v-16.9zm-110.333-15.115c-22.285-1.131-42.598-21.106-42.554-44.497l74.575-29.22c13.752-5.492 30.481-5.78 45.354 0l74.546 29.22c-.16 23.303-20.778 45.142-45.57 44.613.001-.001-103.286.059-106.351-.116zm84.454 15.118-.003 39.385L256 351.792l-29.767-20.704-.003-39.385zM169.66 15h46.576a10.98 10.98 0 0 1 8.765 4.39l13.102 17.548a7.502 7.502 0 0 0 6.01 3.013h72.678c19.575-.1 36.862 16.623 36.476 36.914v44.725h-13.951a5.947 5.947 0 0 1-5.94-5.94c0-11.546-9.394-20.94-20.94-20.94h-12.115a7.5 7.5 0 0 0 0 15h12.115a5.947 5.947 0 0 1 5.94 5.94c0 11.546 9.394 20.94 20.94 20.94h13.951v79.397l-69.099-27.085a77.208 77.208 0 0 0-20.667-4.963v-12.825a7.5 7.5 0 0 0-15 0v12.829a77.307 77.307 0 0 0-20.635 4.958l-69.13 27.087v-79.399h13.951c11.546 0 20.94-9.394 20.94-20.94a5.947 5.947 0 0 1 5.94-5.94h65.643a7.5 7.5 0 0 0 0-15h-65.643c-11.546 0-20.94 9.394-20.94 20.94a5.947 5.947 0 0 1-5.94 5.94h-13.951l-.01-95.654C158.725 19.905 163.63 15 169.66 15zm30.691 276.7 10.88.002v16.9c-16.466-1.471-32.759 10.361-35.78 26.736l-19.08 3.507c-1.675-24.915 18.556-47.24 43.98-47.145zm22.132 101.319c-.803 1.068-1.882 1.154-2.454 1.106-.572-.045-1.624-.297-2.249-1.478l-27.869-52.659c.865-9.179 8.614-16.384 18.015-16.384h3.304v11.407a7.499 7.499 0 0 0 3.218 6.157l30.879 21.475zm71.738-.373c-.625 1.181-1.677 1.433-2.249 1.478-.572.048-1.65-.038-2.454-1.106l-22.844-30.376 30.879-21.475a7.5 7.5 0 0 0 3.218-6.157v-11.407h3.304c9.401 0 17.15 7.206 18.015 16.384z" fill="#000000" opacity="1" data-original="#000000" class=""></path><circle cx="290.69" cy="438.054" r="7.5" fill="#000000" opacity="1" data-original="#000000" class=""></circle><circle cx="290.69" cy="472.974" r="7.5" fill="#000000" opacity="1" data-original="#000000" class=""></circle></g></svg>