<svg id="Capa_1" enable-background="new 0 0 512 512" height="512" viewBox="0 0 512 512" width="512" xmlns="http://www.w3.org/2000/svg"><g><g><path d="m386.984 390.227h-261.968c-1.866 0-3.709-.098-5.535-.256v54.529c0 33 27 60 60 60h153.036c33 0 60-27 60-60v-54.529c-1.824.158-3.667.256-5.533.256z" fill="#ffe5c2"/></g><g><g><path d="m386.984 390.227h-46.947v54.273c0 33-27 60-60 60h52.482c33 0 60-27 60-60v-54.529c-1.826.158-3.669.256-5.535.256z" fill="#fed2a4"/></g></g><g><g><path d="m166.978 390.227v37.773c0 11.046 8.954 20 20 20h138.044c11.046 0 20-8.954 20-20v-37.773z" fill="#fff"/></g><g><path d="m314 390.227v16.773c0 11.046-8.954 20-20 20h-127.022v1c0 11.046 8.954 20 20 20h138.044c11.046 0 20-8.954 20-20v-37.773z" fill="#f3f0f3"/></g><path d="m238.196 390.227h35.609v57.773h-35.609z" fill="#fff"/></g><g><path d="m431.307 270.925c9.478-22.602 14.72-47.419 14.712-73.464-.031-105.303-87.914-191.665-193.202-189.936-103.477 1.7-186.836 86.112-186.836 189.993 0 26.078 5.263 50.924 14.771 73.547 1.534 3.65.717 7.877-2.04 10.719-11.288 11.639-18.266 27.478-18.266 44.873 0 35.513 29.056 64.569 64.569 64.569h261.968c35.513 0 64.569-29.056 64.569-64.569 0-17.396-6.978-33.236-18.267-44.875-2.794-2.881-3.531-7.155-1.978-10.857z" fill="#fff3de"/></g><g><path d="m433.286 281.782c-2.795-2.881-3.532-7.155-1.979-10.857 9.478-22.602 14.72-47.418 14.712-73.464-.031-105.303-87.914-191.665-193.202-189.936-5.983.098-11.894.485-17.73 1.124 94.395 10.475 169.35 91.563 169.379 188.812.008 26.045-5.234 50.862-14.712 73.464-1.552 3.702-.816 7.976 1.979 10.857 11.289 11.64 18.267 27.479 18.267 44.875 0 35.513-29.056 64.569-64.569 64.569h41.553c35.513 0 64.569-29.056 64.569-64.569 0-17.396-6.978-33.235-18.267-44.875z" fill="#ffe5c2"/></g><g><path d="m252.817 7.526c-38.829.638-74.825 12.923-104.647 33.512.004.002.008.005.011.007-.036.622-.061 1.247-.061 1.878 0 16.866 13.173 30.649 29.79 31.637-11.051 12.449-10.619 31.51 1.306 43.435s30.986 12.358 43.435 1.306c.988 16.617 14.772 29.79 31.637 29.79s30.649-13.173 31.637-29.79c12.449 11.051 31.51 10.619 43.435-1.306 11.926-11.926 12.358-30.986 1.306-43.435 16.617-.988 29.79-14.772 29.79-31.637 0-1.297-.095-2.57-.247-3.825-30.873-20.481-67.909-32.221-107.392-31.572z" fill="#fb2b3a"/></g><g><g><path d="m360.457 42.923c0-1.297-.095-2.57-.247-3.825-14.037-9.312-29.352-16.81-45.589-22.165.246 2.824.379 5.68.379 8.568 0 51.978-40.675 94.451-91.931 97.338 2.583 14.91 15.571 26.253 31.22 26.253 16.865 0 30.649-13.173 31.637-29.79 12.449 11.051 31.51 10.619 43.435-1.306 11.926-11.926 12.358-30.986 1.306-43.435 16.618-.989 29.79-14.773 29.79-31.638z" fill="#e41f2d"/></g></g><g><path d="m252.817 7.526c-4.591.075-9.139.321-13.645.717.005.002.01.004.015.006-13.369 5.831-22.717 19.158-22.717 34.675 0 20.887 16.932 37.819 37.819 37.819s37.819-16.932 37.819-37.819c0-15.794-9.686-29.32-23.439-34.98-5.234-.356-10.519-.506-15.852-.418z" fill="#ffe177"/></g><g><path d="m268.669 7.943c-4.495-.305-9.029-.448-13.597-.43 7.569 6.913 12.33 16.849 12.33 27.909 0 20.208-15.85 36.713-35.796 37.764 6.319 4.744 14.172 7.556 22.682 7.556 20.887 0 37.819-16.932 37.819-37.819.001-15.794-9.685-29.32-23.438-34.98z" fill="#ffd15b"/></g><g><g><path d="m384.192 117.529c0 35.188 26.976 64.046 61.371 67.098-2.872-41.875-19.612-80.189-45.581-110.393-9.84 11.712-15.79 26.801-15.79 43.295z" fill="#09a76d"/></g><g><path d="m112.455 73.025c-26.338 30.342-43.211 69.113-46.038 111.73 35.097-2.343 62.844-31.536 62.844-67.226 0-17.062-6.353-32.631-16.806-44.504z" fill="#09a76d"/></g></g><g><path d="m242.026 244.263c0-11.01-8.599-20.008-19.447-20.653 7.214-8.127 6.932-20.57-.853-28.355s-20.228-8.067-28.355-.853c-.645-10.848-9.643-19.447-20.653-19.447s-20.008 8.599-20.653 19.447c-8.127-7.214-20.57-6.932-28.355.853s-8.067 20.228-.853 28.355c-10.848.645-19.447 9.643-19.447 20.653s8.599 20.008 19.447 20.653c-7.214 8.127-6.932 20.57.853 28.355s20.228 8.067 28.355.853c.645 10.848 9.643 19.447 20.653 19.447s20.008-8.599 20.653-19.447c8.127 7.214 20.57 6.932 28.355-.853s8.067-20.228.853-28.355c10.848-.645 19.447-9.643 19.447-20.653z" fill="#fb2b3a"/></g><g><path d="m408 244.263c0-11.01-8.599-20.008-19.447-20.653 7.214-8.127 6.932-20.57-.853-28.355s-20.228-8.067-28.355-.853c-.645-10.848-9.643-19.447-20.653-19.447s-20.008 8.599-20.653 19.447c-8.127-7.214-20.57-6.932-28.355.853s-8.067 20.228-.853 28.355c-10.848.645-19.447 9.643-19.447 20.653s8.599 20.008 19.447 20.653c-7.214 8.127-6.932 20.57.853 28.355s20.228 8.067 28.355.853c.645 10.848 9.643 19.447 20.653 19.447s20.008-8.599 20.653-19.447c8.127 7.214 20.57 6.932 28.355-.853s8.067-20.228.853-28.355c10.848-.645 19.447-9.643 19.447-20.653z" fill="#fb2b3a"/></g><g><g><circle cx="338.693" cy="244.263" fill="#ffe177" r="42.5"/></g></g><g><path d="m338.693 201.763c-5.508 0-10.766 1.059-15.596 2.967 15.752 6.22 26.903 21.569 26.903 39.533s-11.151 33.313-26.904 39.533c4.83 1.907 10.088 2.967 15.596 2.967 23.472 0 42.5-19.028 42.5-42.5s-19.027-42.5-42.499-42.5z" fill="#ffd15b"/></g><g><path d="m245.784 311.067-18.572 32.168c-4.54 7.864 1.135 17.695 10.216 17.695h37.145c9.081 0 14.757-9.83 10.216-17.695l-18.572-32.168c-4.541-7.865-15.893-7.865-20.433 0z" fill="#22b27f"/></g><g><path d="m284.788 343.235-18.572-32.168c-4.54-7.864-15.892-7.864-20.432 0l-1.977 3.424 16.595 28.744c4.54 7.864-1.135 17.695-10.216 17.695h24.386c9.081 0 14.757-9.831 10.216-17.695z" fill="#09a76d"/></g><g><circle cx="173.331" cy="244.263" fill="#ffe177" r="42.5"/></g><g><path d="m173.331 201.763c-5.629 0-10.998 1.104-15.915 3.092 15.584 6.301 26.584 21.566 26.584 39.408 0 17.843-11 33.107-26.585 39.408 4.917 1.988 10.286 3.092 15.915 3.092 23.472 0 42.5-19.028 42.5-42.5s-19.027-42.5-42.499-42.5z" fill="#ffd15b"/></g><g><path d="m438.67 276.562c-.676-.697-.851-1.771-.446-2.735 10.157-24.223 15.303-49.916 15.295-76.366-.016-52.935-21.089-102.804-59.339-140.419-38.27-37.636-88.525-57.897-141.487-57.014-72.01 1.183-137.688 41.529-171.405 105.294-1.936 3.662-.537 8.2 3.125 10.136 3.661 1.935 8.199.537 10.136-3.125 5.119-9.681 11.05-18.764 17.658-27.213 6.199 9.615 9.555 20.845 9.555 32.409 0 28.391-20.042 52.554-47.018 58.483 1.302-11.078 3.605-21.996 6.906-32.636 1.228-3.957-.985-8.158-4.941-9.385-3.957-1.228-8.158.984-9.385 4.941-5.867 18.913-8.841 38.625-8.841 58.588 0 26.484 5.167 52.207 15.357 76.454.362.862.158 1.903-.509 2.591-13.144 13.552-20.382 31.343-20.382 50.095 0 35.287 25.499 64.712 59.035 70.866v6.474c0 4.142 3.358 7.5 7.5 7.5s7.5-3.358 7.5-7.5v-5.272h32.497v29.272c0 15.164 12.336 27.5 27.5 27.5h138.044c15.164 0 27.5-12.336 27.5-27.5v-29.272h32.496v45.772c0 28.949-23.551 52.5-52.5 52.5h-153.039c-28.949 0-52.501-23.551-52.501-52.5v-5.5c0-4.142-3.358-7.5-7.5-7.5s-7.5 3.358-7.5 7.5v5.5c0 37.22 30.281 67.5 67.501 67.5h153.036c37.22 0 67.5-30.28 67.5-67.5v-46.975c33.536-6.154 59.035-35.579 59.035-70.866 0-18.754-7.239-36.545-20.383-50.097zm-197.495-260.954c3.898-.316 7.82-.518 11.765-.583 4.641-.077 9.26.024 13.849.296 10.854 4.914 17.82 15.622 17.82 27.601 0 16.718-13.601 30.319-30.319 30.319s-30.319-13.601-30.319-30.319c-.002-11.685 6.722-22.275 17.204-27.314zm-25.702 3.949c-4.166 6.915-6.504 14.95-6.504 23.366 0 24.989 20.33 45.319 45.319 45.319s45.319-20.33 45.319-45.319c0-8.779-2.503-17.104-6.963-24.178 21.382 4.422 41.75 12.71 60.304 24.528-.181 12.626-10.095 23.049-22.726 23.8-2.867.17-5.385 1.963-6.484 4.617s-.586 5.701 1.32 7.849c8.479 9.551 8.039 24.114-1 33.153-9.04 9.04-23.602 9.479-33.153 1-2.147-1.906-5.196-2.42-7.849-1.32-2.653 1.099-4.446 3.617-4.617 6.484-.758 12.749-11.366 22.735-24.15 22.735s-23.392-9.986-24.15-22.735c-.17-2.867-1.963-5.385-4.617-6.484-2.653-1.099-5.702-.586-7.849 1.32-9.551 8.479-24.114 8.039-33.153-1-9.039-9.04-9.479-23.603-1-33.153 1.907-2.148 2.419-5.196 1.32-7.849s-3.617-4.446-6.484-4.617c-12.042-.716-21.615-10.222-22.639-22.048 18.128-11.923 38.35-20.595 59.756-25.468zm-20.386 420.943h-8.109c-6.893 0-12.5-5.607-12.5-12.5v-29.272h20.609zm35.609 0h-20.609v-41.772h20.609zm35.609 0h-20.609v-41.772h20.609zm35.609 0h-20.609v-41.772h20.609zm35.609-12.5c0 6.893-5.608 12.5-12.5 12.5h-8.108v-41.772h20.609v29.272zm49.461-44.272h-261.968c-31.468 0-57.069-25.601-57.069-57.069 0-14.832 5.735-28.914 16.149-39.651 4.87-5.021 6.271-12.419 3.57-18.846-9.413-22.396-14.185-46.164-14.185-70.642 0-2.016.039-4.029.104-6.038 35.922-5.666 63.176-36.934 63.176-73.952 0-15.969-5.101-31.438-14.475-44.23 6.258-6.732 12.995-12.952 20.139-18.631 3.589 11.407 12.262 20.623 23.429 24.885-6.472 14.463-3.697 31.989 8.059 43.745 11.757 11.756 29.282 14.53 43.745 8.059 5.65 14.803 20.005 25.234 36.63 25.234 16.626 0 30.98-10.43 36.631-25.233 14.463 6.471 31.989 3.697 43.745-8.059s14.53-29.282 8.059-43.745c11.738-4.48 20.717-14.437 23.936-26.655 5.905 4.562 11.585 9.509 17.003 14.837 2.271 2.233 4.473 4.514 6.612 6.838-8.796 12.544-13.581 27.568-13.581 42.956 0 1.419.05 2.894.157 4.642.244 3.978 3.546 7.041 7.479 7.041.154 0 .31-.005.466-.015 4.134-.253 7.28-3.811 7.026-7.945-.088-1.434-.129-2.617-.129-3.723 0-10.962 3.051-21.688 8.691-30.993 20.238 26.052 32.886 56.633 36.812 89.102-14.405-3.538-27.019-12.306-35.449-24.925-2.301-3.443-6.958-4.371-10.403-2.07-3.444 2.301-4.371 6.958-2.07 10.403 11.463 17.157 29.115 28.644 49.124 32.187.071 2.072.12 4.148.121 6.232.007 24.446-4.746 48.187-14.128 70.562-2.731 6.514-1.353 13.963 3.512 18.979 10.415 10.738 16.151 24.82 16.151 39.653 0 31.466-25.601 57.067-57.069 57.067z"/><path d="m233.785 269.558c9.353-4.618 15.741-14.261 15.741-25.294 0-11.034-6.388-20.678-15.741-25.294 3.349-9.878 1.047-21.214-6.755-29.017s-19.138-10.105-29.017-6.756c-4.617-9.353-14.261-15.741-25.294-15.741-11.034 0-20.677 6.388-25.294 15.741-9.877-3.347-21.214-1.046-29.017 6.756-7.802 7.802-10.104 19.138-6.755 29.016-9.353 4.617-15.741 14.261-15.741 25.295s6.388 20.677 15.741 25.294c-3.348 9.878-1.046 21.214 6.756 29.017 7.802 7.801 19.138 10.102 29.016 6.755 4.617 9.353 14.261 15.741 25.295 15.741s20.677-6.388 25.294-15.741c9.878 3.35 21.214 1.047 29.017-6.755 7.801-7.803 10.103-19.139 6.754-29.017zm-35.434-69.546c5.206-4.623 13.144-4.381 18.073.547 4.928 4.928 5.168 12.867.547 18.073-.153.173-.282.36-.417.543-4.527-7.768-11.08-14.212-18.939-18.597.253-.175.502-.359.736-.566zm-25.02 79.252c-19.299 0-35-15.701-35-35s15.701-35.001 35-35.001 35 15.701 35 35.001c0 19.298-15.702 35-35 35zm-.612-96.808c6.969 0 12.752 5.443 13.166 12.392.021.357.068.708.138 1.052-4.055-1.065-8.308-1.637-12.692-1.637-4.867 0-9.569.712-14.02 2.015.12-.465.213-.939.242-1.43.413-6.949 6.196-12.392 13.166-12.392zm-43.705 18.103c4.929-4.929 12.867-5.168 18.073-.547.412.366.866.664 1.335.926-7.92 4.571-14.48 11.242-18.901 19.257-.284-.555-.629-1.084-1.054-1.563-4.621-5.206-4.381-13.145.547-18.073zm-18.103 43.705c0-6.97 5.443-12.753 12.392-13.166.659-.039 1.297-.173 1.906-.375-1.214 4.31-1.878 8.848-1.878 13.541s.664 9.231 1.879 13.541c-.609-.202-1.247-.336-1.906-.375-6.95-.414-12.393-6.197-12.393-13.166zm36.176 44.251c-5.207 4.622-13.145 4.381-18.073-.547s-5.168-12.867-.547-18.073c.425-.479.77-1.008 1.054-1.563 4.419 8.011 10.974 14.679 18.889 19.25-.467.262-.913.569-1.323.933zm25.632 17.556c-6.97 0-12.753-5.443-13.166-12.392-.029-.491-.122-.965-.242-1.43 4.452 1.303 9.153 2.015 14.02 2.015 4.385 0 8.637-.572 12.692-1.637-.07.344-.117.695-.138 1.052-.414 6.948-6.197 12.392-13.166 12.392zm43.704-18.103c-4.929 4.928-12.867 5.167-18.073.547-.234-.208-.483-.391-.736-.566 7.858-4.386 14.412-10.829 18.939-18.597.135.184.264.371.417.543 4.622 5.206 4.382 13.144-.547 18.073zm5.113-30.46c1.161-4.221 1.794-8.659 1.794-13.244s-.633-9.023-1.794-13.244c.199.028.395.066.597.078 6.949.413 12.392 6.196 12.392 13.166 0 6.969-5.443 12.752-12.392 13.166-.202.012-.398.05-.597.078z"/><path d="m399.759 269.558c9.353-4.618 15.741-14.26 15.741-25.294s-6.388-20.678-15.741-25.294c3.349-9.878 1.047-21.214-6.755-29.017s-19.139-10.103-29.016-6.756c-4.617-9.353-14.261-15.741-25.295-15.741s-20.677 6.388-25.294 15.741c-9.876-3.347-21.214-1.046-29.017 6.756-7.802 7.802-10.104 19.138-6.755 29.017-9.353 4.617-15.741 14.26-15.741 25.294s6.388 20.677 15.741 25.294c-3.349 9.878-1.047 21.214 6.755 29.017 7.802 7.801 19.138 10.102 29.016 6.755 4.617 9.353 14.261 15.741 25.295 15.741s20.678-6.388 25.294-15.741c9.879 3.348 21.215 1.047 29.017-6.755 7.803-7.803 10.104-19.139 6.755-29.017zm-35.434-69.546c5.206-4.621 13.145-4.381 18.073.547s5.168 12.867.547 18.073c-.285.322-.529.668-.751 1.026-4.473-7.876-11.018-14.422-18.894-18.895.356-.222.703-.466 1.025-.751zm-25.632 79.252c-19.299 0-35-15.701-35-35s15.701-35.001 35-35.001 35 15.701 35 35.001c0 19.298-15.701 35-35 35zm0-96.808c6.97 0 12.753 5.443 13.166 12.392.025.424.096.836.19 1.241-4.255-1.181-8.73-1.826-13.356-1.826s-9.101.645-13.356 1.826c.094-.405.165-.817.19-1.241.413-6.949 6.196-12.392 13.166-12.392zm-43.705 18.103c4.929-4.929 12.867-5.168 18.073-.547.322.285.668.529 1.026.751-7.876 4.473-14.422 11.018-18.894 18.895-.222-.358-.466-.704-.751-1.026-4.622-5.206-4.382-13.145.546-18.073zm-18.102 43.705c0-6.97 5.443-12.753 12.392-13.166.424-.025.836-.096 1.241-.19-1.181 4.255-1.826 8.73-1.826 13.356s.645 9.101 1.826 13.356c-.405-.094-.817-.165-1.241-.19-6.949-.414-12.392-6.197-12.392-13.166zm36.175 44.251c-5.207 4.622-13.145 4.381-18.073-.547s-5.168-12.867-.547-18.073c.285-.322.529-.668.751-1.026 4.471 7.874 11.014 14.417 18.887 18.89-.355.222-.698.472-1.018.756zm25.632 17.556c-6.97 0-12.753-5.443-13.166-12.392-.025-.424-.096-.836-.19-1.241 4.255 1.181 8.73 1.826 13.356 1.826s9.101-.645 13.356-1.826c-.094.405-.165.817-.19 1.241-.413 6.948-6.196 12.392-13.166 12.392zm43.705-18.103c-4.929 4.927-12.867 5.168-18.073.547-.322-.285-.668-.529-1.026-.751 7.876-4.473 14.421-11.018 18.894-18.894.222.358.466.704.751 1.026 4.622 5.206 4.382 13.144-.546 18.072zm5.71-30.538c-.424.025-.836.096-1.241.19 1.181-4.255 1.826-8.73 1.826-13.356s-.645-9.101-1.826-13.356c.405.094.817.165 1.241.19 6.949.413 12.392 6.196 12.392 13.166 0 6.969-5.443 12.752-12.392 13.166z"/><path d="m272.711 307.317c-3.488-6.042-9.735-9.649-16.711-9.649s-13.223 3.607-16.711 9.649l-18.572 32.167c-3.488 6.042-3.488 13.255 0 19.296 3.488 6.042 9.735 9.648 16.711 9.648h37.145c6.976 0 13.223-3.607 16.711-9.648 3.488-6.042 3.488-13.255 0-19.296zm5.582 43.965c-.373.646-1.482 2.148-3.721 2.148h-37.145c-2.239 0-3.348-1.502-3.721-2.148s-1.12-2.358 0-4.297l18.572-32.168c1.12-1.938 2.975-2.148 3.721-2.148s2.601.209 3.721 2.148l18.572 32.168c1.121 1.939.374 3.651.001 4.297z"/><path d="m256 185.499c4.142 0 7.5-3.358 7.5-7.5v-5c0-4.142-3.358-7.5-7.5-7.5s-7.5 3.358-7.5 7.5v5c0 4.142 3.358 7.5 7.5 7.5z"/><path d="m256 217.499c4.142 0 7.5-3.358 7.5-7.5v-5c0-4.142-3.358-7.5-7.5-7.5s-7.5 3.358-7.5 7.5v5c0 4.142 3.358 7.5 7.5 7.5z"/><path d="m105.532 328.968h-5.532c-4.142 0-7.5 3.358-7.5 7.5s3.358 7.5 7.5 7.5h5.532c4.142 0 7.5-3.358 7.5-7.5s-3.358-7.5-7.5-7.5z"/><path d="m144.255 340.032h-5.532c-4.142 0-7.5 3.358-7.5 7.5s3.358 7.5 7.5 7.5h5.532c4.142 0 7.5-3.358 7.5-7.5s-3.358-7.5-7.5-7.5z"/><path d="m182.978 340.032h-5.532c-4.142 0-7.5 3.358-7.5 7.5s3.358 7.5 7.5 7.5h5.532c4.142 0 7.5-3.358 7.5-7.5s-3.357-7.5-7.5-7.5z"/><path d="m412 328.968h-5.532c-4.142 0-7.5 3.358-7.5 7.5s3.358 7.5 7.5 7.5h5.532c4.142 0 7.5-3.358 7.5-7.5s-3.358-7.5-7.5-7.5z"/><path d="m373.277 340.032h-5.532c-4.142 0-7.5 3.358-7.5 7.5s3.358 7.5 7.5 7.5h5.532c4.142 0 7.5-3.358 7.5-7.5s-3.358-7.5-7.5-7.5z"/><path d="m334.553 340.032h-5.532c-4.142 0-7.5 3.358-7.5 7.5s3.358 7.5 7.5 7.5h5.532c4.142 0 7.5-3.358 7.5-7.5s-3.358-7.5-7.5-7.5z"/><path d="m201.5 481.5c4.142 0 7.5-3.358 7.5-7.5s-3.358-7.5-7.5-7.5h-5c-4.142 0-7.5 3.358-7.5 7.5s3.358 7.5 7.5 7.5z"/><path d="m239.5 481.5c4.142 0 7.5-3.358 7.5-7.5s-3.358-7.5-7.5-7.5h-5c-4.142 0-7.5 3.358-7.5 7.5s3.358 7.5 7.5 7.5z"/><path d="m277.5 481.5c4.142 0 7.5-3.358 7.5-7.5s-3.358-7.5-7.5-7.5h-5c-4.142 0-7.5 3.358-7.5 7.5s3.358 7.5 7.5 7.5z"/><path d="m315.5 481.5c4.142 0 7.5-3.358 7.5-7.5s-3.358-7.5-7.5-7.5h-5c-4.142 0-7.5 3.358-7.5 7.5s3.358 7.5 7.5 7.5z"/><path d="m144.25 404.5c-4.142 0-7.5 3.358-7.5 7.5v5c0 4.142 3.358 7.5 7.5 7.5s7.5-3.358 7.5-7.5v-5c0-4.142-3.358-7.5-7.5-7.5z"/><path d="m375.25 417v-5c0-4.142-3.358-7.5-7.5-7.5s-7.5 3.358-7.5 7.5v5c0 4.142 3.358 7.5 7.5 7.5s7.5-3.358 7.5-7.5z"/><path d="m141.697 447.697c-2.929 2.929-2.929 7.678 0 10.606l3.543 3.543c1.464 1.464 3.384 2.197 5.303 2.197s3.839-.732 5.303-2.197c2.929-2.929 2.929-7.678 0-10.606l-3.543-3.543c-2.929-2.929-7.678-2.929-10.606 0z"/><path d="m356.154 451.24c-2.929 2.929-2.929 7.678 0 10.606 1.464 1.464 3.384 2.197 5.303 2.197s3.839-.732 5.303-2.197l3.543-3.543c2.929-2.929 2.929-7.678 0-10.606-2.929-2.929-7.678-2.929-10.606 0z"/></g></g></svg>