<svg id="Capa_1" enable-background="new 0 0 512 512" height="512" viewBox="0 0 512 512" width="512" xmlns="http://www.w3.org/2000/svg"><g><g><path clip-rule="evenodd" d="m390.953 11h-378.536c-2.703 0-4.917 2.212-4.917 4.913v378.216c0 2.701 2.214 4.913 4.917 4.913h378.537c2.703 0 4.917-2.212 4.917-4.913v-378.216c-.001-2.701-2.215-4.913-4.918-4.913z" fill="#c8effe" fill-rule="evenodd"/></g><g><path clip-rule="evenodd" d="m66.214 207.621-58.714 59.784v126.723c0 2.701 2.214 4.913 4.917 4.913h279.769l-108.429-103.682-2.53-2.557-83.643-85.181c-10.783-10.573-21.824-10.573-31.37 0z" fill="#80d261" fill-rule="evenodd"/></g><g><path clip-rule="evenodd" d="m279.477 192.768-98.25 100.034 2.53 2.557 108.429 103.683h98.767c2.703 0 4.917-2.212 4.917-4.913v-101.327-15.945l-82.579-84.089c-10.696-10.457-21.594-11.319-31.312-2.499-.834.746-1.668 1.579-2.502 2.499z" fill="#80d261" fill-rule="evenodd"/></g><g><path clip-rule="evenodd" d="m181.227 292.802-83.643-85.181c-3.508-3.419-7.016-5.746-10.524-6.952 9.805 20.139 18.258 41.772 25.073 64.611 13.715 46.139 19.092 91.818 17.051 133.762h163.002l-108.429-103.683z" fill="#68ca44" fill-rule="evenodd"/></g><g><path clip-rule="evenodd" d="m390.953 11h-198.225c42.871 39.445 79.301 98.08 100.176 168.121.489 1.724 1.006 3.447 1.495 5.171 6.182-.546 12.565 2.298 18.891 8.475l82.579 84.089v-260.943c.001-2.701-2.213-4.913-4.916-4.913z" fill="#99e6fc" fill-rule="evenodd"/></g><g><path clip-rule="evenodd" d="m395.87 276.857-82.579-84.089c-6.326-6.177-12.709-9.021-18.891-8.475 22.399 78.717 20.472 155.739-.891 214.748h97.445c2.703 0 4.917-2.212 4.917-4.913v-101.326-15.945z" fill="#68ca44" fill-rule="evenodd"/></g><g><path clip-rule="evenodd" d="m108.568 115.085c15.469-4.424 24.412-20.541 19.984-36.026-4.457-15.456-20.587-24.391-36.057-19.938-15.469 4.424-24.412 20.57-19.984 36.026 4.457 15.456 20.587 24.391 36.057 19.938z" fill="#ffd86c" fill-rule="evenodd"/></g><g><path clip-rule="evenodd" d="m108.568 115.085c15.469-4.424 24.412-20.541 19.984-36.026-4.457-15.456-20.587-24.391-36.057-19.938-1.006.287-1.984.632-2.933 1.006 8.022 3.246 14.492 9.998 17.079 18.932 4.14 14.479-3.422 29.533-17.079 35.049 5.837 2.356 12.479 2.873 19.006.977z" fill="#fec165" fill-rule="evenodd"/></g><g><path clip-rule="evenodd" d="m308.144 281.971-22.859 22.868c-2.933 2.902-4.054 6.981-3.364 10.802.431 2.327 1.553 4.597 3.364 6.378l9.316 9.337c-3.307 6.205-5.981 12.813-7.936 19.708h-13.428c-6.699 0-12.163 5.487-12.163 12.152v7.211 25.138c0 6.694 5.463 12.152 12.163 12.152h13.917c2.041 6.694 4.744 13.1 8.051 19.133l-9.92 9.911c-4.744 4.712-4.744 12.468 0 17.18l2.214 2.241 20.645 20.627c4.744 4.74 12.479 4.74 17.223 0l9.92-9.911c6.038 3.304 12.45 6.004 19.15 8.015v13.934c0 6.665 5.463 12.152 12.163 12.152h32.347c6.699 0 12.191-5.487 12.191-12.152v-13.416c6.901-1.954 13.514-4.625 19.725-7.929l9.316 9.308c4.744 4.74 12.479 4.74 17.223 0l20.645-20.627 2.243-2.241c4.716-4.712 4.716-12.468 0-17.18l-8.827-8.82c3.594-6.349 6.498-13.129 8.655-20.225h12.191c6.699 0 12.191-5.458 12.191-12.152v-25.138-7.211c0-6.665-5.492-12.152-12.191-12.152h-11.703c-2.07-7.326-4.946-14.307-8.54-20.828l8.223-8.216c1.783-1.781 2.904-4.051 3.335-6.378.69-3.821-.431-7.9-3.335-10.802l-22.888-22.868c-4.744-4.74-12.479-4.74-17.223 0l-8.195 8.188c-6.556-3.591-13.543-6.464-20.846-8.533v-11.693c0-6.665-5.492-12.152-12.191-12.152h-32.347c-6.699 0-12.163 5.487-12.163 12.152v12.21c-7.131 2.155-13.917 5.056-20.242 8.647l-8.827-8.82c-4.744-4.74-12.479-4.74-17.223 0zm74.643 51.166c22.485 0 41.232 16.031 45.43 37.29.546 2.902.863 5.889.863 8.963 0 25.54-20.731 46.254-46.293 46.254-25.59 0-46.321-20.714-46.321-46.254 0-3.074.316-6.062.891-8.963 4.17-21.259 22.917-37.29 45.43-37.29z" fill="#798c98" fill-rule="evenodd"/></g><g><path clip-rule="evenodd" d="m382.787 333.137c-22.514 0-41.261 16.031-45.43 37.29-.575 2.902-.891 5.889-.891 8.963 0 25.54 20.731 46.254 46.321 46.254 25.562 0 46.293-20.714 46.293-46.254 0-3.074-.316-6.062-.863-8.963-4.197-21.259-22.944-37.29-45.43-37.29z" fill="#e2e2e2" fill-rule="evenodd"/></g><g><path clip-rule="evenodd" d="m377.094 315.641c2.76 5.631 5.147 11.492 7.16 17.525 21.824.661 39.881 16.462 43.964 37.261.546 2.902.863 5.889.863 8.963 0 24.994-19.868 45.392-44.683 46.225-3.565 10.802-8.338 21.03-14.175 30.568-4.629 7.556-9.92 14.652-15.786 21.202v11.463c0 6.665 5.463 12.152 12.163 12.152h32.347c6.699 0 12.191-5.487 12.191-12.152v-13.416c6.901-1.954 13.514-4.625 19.725-7.929l9.316 9.308c4.744 4.74 12.479 4.74 17.223 0l20.645-20.627 2.243-2.241c4.716-4.712 4.716-12.468 0-17.18l-8.827-8.82c3.594-6.349 6.498-13.129 8.655-20.225h12.191c6.699 0 12.191-5.487 12.191-12.152v-25.138-7.211c0-6.694-5.492-12.152-12.191-12.152h-11.703c-2.07-7.326-4.946-14.307-8.54-20.828l8.223-8.216c1.783-1.781 2.904-4.051 3.335-6.378.69-3.821-.431-7.9-3.335-10.802l-22.888-22.868c-4.744-4.74-12.479-4.74-17.223 0l-8.195 8.188c-6.556-3.591-13.543-6.464-20.846-8.533v-11.693c0-6.665-5.492-12.152-12.191-12.152h-32.347c-6.699 0-12.163 5.487-12.163 12.152v11.894c9.029 10.111 16.678 21.459 22.658 33.812z" fill="#798c98" fill-rule="evenodd"/></g><g><path clip-rule="evenodd" d="m384.254 333.166c3.939 11.808 6.412 24.305 7.217 37.261.173 3.045.288 6.091.288 9.193 0 16.059-2.588 31.516-7.361 45.995 24.814-.833 44.683-21.231 44.683-46.225 0-3.074-.316-6.062-.863-8.963-4.083-20.8-22.14-36.6-43.964-37.261z" fill="#cecece" fill-rule="evenodd"/></g><g><path d="m182.41 131.218c2.008-3.623.699-8.188-2.924-10.195l-11.56-6.406c-3.624-2.01-8.188-.7-10.195 2.924-2.008 3.623-.699 8.188 2.924 10.195l11.56 6.406c1.152.639 2.398.941 3.629.941 2.637 0 5.197-1.395 6.566-3.865z"/><path d="m128.943 143.029c-1.148-3.979-5.308-6.277-9.284-5.129-3.98 1.146-6.276 5.304-5.13 9.283l3.652 12.67c.948 3.286 3.946 5.425 7.203 5.425.688 0 1.388-.096 2.081-.296 3.98-1.146 6.276-5.304 5.13-9.283z"/><path d="m164.089 79.66 12.709-3.648c3.981-1.144 6.282-5.297 5.14-9.278-1.144-3.982-5.299-6.281-9.278-5.14l-12.709 3.648c-3.981 1.144-6.282 5.297-5.14 9.278.944 3.29 3.945 5.433 7.205 5.433.685 0 1.381-.095 2.073-.293z"/><path d="m74.262 138.666c-3.827-1.583-8.214.231-9.801 4.057l-5.061 12.21c-1.586 3.827.23 8.215 4.057 9.801.939.389 1.912.573 2.869.573 2.942 0 5.734-1.743 6.932-4.63l5.061-12.21c1.585-3.827-.231-8.215-4.057-9.801z"/><path d="m90.42 51.914c-9.402 2.692-17.192 8.888-21.938 17.446-4.745 8.558-5.875 18.449-3.178 27.864 4.625 16.039 19.315 26.503 35.222 26.502 3.341 0 6.737-.462 10.104-1.431 19.413-5.553 30.688-25.874 25.127-45.315-5.595-19.407-25.937-30.66-45.337-25.066zm16.072 55.964c-11.456 3.292-23.469-3.345-26.771-14.797-1.591-5.552-.923-11.393 1.88-16.447 2.803-5.056 7.404-8.714 12.956-10.302.004-.001.008-.002.013-.004 1.99-.572 3.997-.846 5.972-.846 9.396 0 18.071 6.179 20.799 15.639 3.28 11.474-3.375 23.475-14.849 26.757z"/><path d="m492.309 343.563h-6.187c-1.388-4.065-3.019-8.041-4.879-11.896l4.348-4.344c3.698-3.695 5.735-8.63 5.735-13.896 0-5.265-2.036-10.199-5.735-13.896l-22.888-22.868c-7.67-7.663-20.153-7.667-27.825 0l-4.329 4.326c-3.867-1.86-7.848-3.49-11.91-4.878v-6.18c0-9.316-6.537-17.123-15.269-19.134v-234.884c0-6.845-5.57-12.413-12.417-12.413h-378.536c-6.847 0-12.417 5.568-12.417 12.413v378.216c0 6.844 5.57 12.412 12.417 12.412h60.611c4.143 0 7.5-3.357 7.5-7.5s-3.357-7.5-7.5-7.5h-58.028v-121.07l56.564-57.596c.074-.074.146-.15.216-.229 3.183-3.524 6.345-5.358 9.399-5.452 4.175-.085 8.345 3.037 11.106 5.734l86.121 87.686c.055.056.111.111.168.165l75 71.704v19.057h-145.41c-4.143 0-7.5 3.357-7.5 7.5s3.357 7.5 7.5 7.5h148.77c3.537 5.23 9.524 8.676 16.302 8.676h8.513c1.257 3.473 2.688 6.878 4.284 10.194l-6.033 6.03c-3.723 3.697-5.772 8.638-5.772 13.912 0 5.273 2.05 10.214 5.753 13.892l22.862 22.872c7.671 7.663 20.154 7.665 27.825 0l6.057-6.052c3.332 1.6 6.743 3.027 10.212 4.272v8.511c0 10.836 8.821 19.652 19.663 19.652h32.348c10.857 0 19.691-8.816 19.691-19.652v-7.903c3.655-1.248 7.244-2.692 10.739-4.323l5.5 5.495c7.67 7.664 20.153 7.666 27.825 0l22.889-22.869c3.698-3.695 5.734-8.63 5.734-13.895 0-5.266-2.036-10.2-5.735-13.896l-4.904-4.9c1.821-3.671 3.439-7.46 4.84-11.339h6.782c10.857 0 19.691-8.815 19.691-19.651v-32.35c0-10.836-8.834-19.653-19.691-19.653zm-389.474-141.298c-7.047-6.908-14.481-10.321-22.111-10.063-7.251.22-13.968 3.675-19.966 10.27l-45.758 46.593v-230.565h373.37v231.781h-8.073l-61.656-62.77c-.034-.034-.068-.068-.103-.103-7.466-7.312-15.327-10.874-23.367-10.664-7.651.226-14.765 3.882-21.145 10.867l-34.116 34.718c-2.903 2.954-2.861 7.703.093 10.606 2.953 2.9 7.702 2.863 10.606-.093l34.216-34.819c.069-.071.138-.144.205-.217 3.561-3.925 7.121-5.967 10.583-6.068 3.838-.122 7.957 2.021 12.381 6.339l52.309 53.255c-7.76 2.632-13.368 9.967-13.368 18.601v6.793c-3.895 1.4-7.692 3.018-11.362 4.841l-4.906-4.902c-7.671-7.665-20.152-7.665-27.825 0-.001.001-.002.002-.004.004l-22.838 22.849c-3.723 3.697-5.773 8.639-5.772 13.912 0 5.273 2.05 10.214 5.748 13.887l5.506 5.518c-1.632 3.493-3.078 7.078-4.327 10.729h-7.917c-7.494 0-14.017 4.214-17.334 10.394l-64.055-61.241 30.903-31.492c2.901-2.956 2.857-7.705-.1-10.605-2.954-2.901-7.703-2.858-10.606.1l-30.795 31.382-78.315-79.736c-.035-.035-.068-.068-.101-.101zm394.165 193.3c0 2.564-2.104 4.651-4.691 4.651h-12.191c-3.303 0-6.216 2.16-7.176 5.319-1.989 6.546-4.683 12.842-8.005 18.712-1.661 2.935-1.16 6.616 1.226 9l8.826 8.818c.862.862 1.338 2.029 1.338 3.286 0 1.256-.476 2.423-1.337 3.284l-22.888 22.868c-1.825 1.823-4.796 1.825-6.621 0l-9.315-9.309c-2.333-2.33-5.913-2.863-8.824-1.315-5.783 3.076-11.922 5.544-18.246 7.335-3.228.914-5.456 3.86-5.456 7.216v13.416c0 2.521-2.148 4.652-4.691 4.652h-32.349c-2.527 0-4.663-2.131-4.663-4.652v-13.934c0-3.312-2.172-6.231-5.344-7.184-6.114-1.835-12.071-4.328-17.706-7.411-1.132-.62-2.369-.921-3.598-.921-1.941 0-3.86.753-5.303 2.194l-9.92 9.912c-1.824 1.822-4.796 1.824-6.618.004l-22.878-22.888c-.866-.86-1.343-2.021-1.343-3.269s.477-2.409 1.358-3.285l9.92-9.911c2.358-2.356 2.879-5.986 1.276-8.91-3.069-5.6-5.577-11.561-7.454-17.717-.962-3.156-3.874-5.313-7.174-5.313h-13.917c-2.57 0-4.662-2.087-4.662-4.651v-32.35c0-2.521 2.135-4.652 4.662-4.652h13.428c3.354 0 6.301-2.227 7.216-5.454 1.79-6.313 4.26-12.446 7.34-18.228 1.55-2.909 1.019-6.49-1.31-8.824l-9.342-9.361c-.865-.859-1.342-2.02-1.342-3.267-.001-1.248.477-2.409 1.362-3.289l22.858-22.868c1.825-1.82 4.793-1.819 6.618.004l8.827 8.82c2.386 2.384 6.071 2.881 9.004 1.217 5.84-3.316 12.135-6.005 18.708-7.99 3.165-.956 5.331-3.873 5.331-7.18v-12.21c0-2.521 2.136-4.652 4.663-4.652h32.348c2.543 0 4.691 2.131 4.691 4.652v11.692c0 3.355 2.229 6.302 5.456 7.216 6.698 1.897 13.188 4.554 19.287 7.895 2.919 1.6 6.547 1.083 8.903-1.272l8.194-8.188c1.827-1.825 4.797-1.823 6.622 0l22.887 22.867c.862.862 1.338 2.029 1.338 3.285 0 1.257-.475 2.423-1.337 3.284l-8.224 8.217c-2.363 2.361-2.88 6-1.268 8.926 3.339 6.06 5.994 12.535 7.891 19.248.913 3.229 3.861 5.46 7.218 5.46h11.702c2.543 0 4.691 2.131 4.691 4.652v32.353z"/></g><g><path d="m382.787 433.145c-29.677 0-53.821-24.114-53.821-53.754s24.145-53.754 53.821-53.754c29.661 0 53.793 24.114 53.793 53.754s-24.132 53.754-53.793 53.754zm0-92.508c-21.406 0-38.821 17.385-38.821 38.754s17.415 38.754 38.821 38.754c21.391 0 38.793-17.385 38.793-38.754s-17.402-38.754-38.793-38.754z"/></g></g></svg>