<svg id="a" height="512" viewBox="0 0 24 24" width="512" xmlns="http://www.w3.org/2000/svg"><path d="m22 6v12c0 1.1046-.8954 2-2 2h-16c-1.1046 0-2-.8954-2-2v-12c0-1.1046.8954-2 2-2h16c1.1046 0 2 .8954 2 2z" fill="#334155"/><path d="m6 16.5c-.1279 0-.2559-.0488-.3535-.1465-.1953-.1953-.1953-.5117 0-.707l3.6465-3.6465-3.6465-3.6465c-.1953-.1953-.1953-.5117 0-.707s.5117-.1953.707 0l4 4c.1953.1953.1953.5117 0 .707l-4 4c-.0977.0977-.2256.1465-.3535.1465zm12.5-.5c0-.2764-.2236-.5-.5-.5h-6c-.2764 0-.5.2236-.5.5s.2236.5.5.5h6c.2764 0 .5-.2236.5-.5z" fill="#fff"/><path d="m20 3.5h-16c-1.3784 0-2.5 1.1211-2.5 2.5v12c0 1.3789 1.1216 2.5 2.5 2.5h16c1.3784 0 2.5-1.1211 2.5-2.5v-12c0-1.3789-1.1216-2.5-2.5-2.5zm1.5 14.5c0 .8271-.6729 1.5-1.5 1.5h-16c-.8271 0-1.5-.6729-1.5-1.5v-12c0-.8271.6729-1.5 1.5-1.5h16c.8271 0 1.5.6729 1.5 1.5z" fill="#0f172a"/></svg>