<svg height="512pt" viewBox="-86 0 512 512" width="512pt" xmlns="http://www.w3.org/2000/svg"><path d="m275.53125 107.925781v-47.351562c0-5.359375-2.859375-10.308594-7.5-12.988281l-41.007812-23.675782c-4.640626-2.679687-10.359376-2.679687-15 0l-41.003907 23.675782c-4.640625 2.679687-7.5 7.628906-7.5 12.988281v47.351562c0 5.359375 2.859375 10.308594 7.5 12.988281l41.003907 23.675782c4.640624 2.679687 10.359374 2.679687 15 0l41.007812-23.675782c4.640625-2.679687 7.5-7.628906 7.5-12.988281zm0 0" fill="#fff9eb"/><path d="m189.523438 36.898438 56.007812 32.335937v64.671875l22.5-12.992188c4.640625-2.679687 7.5-7.628906 7.5-12.988281v-47.351562c0-5.359375-2.859375-10.3125-7.5-12.988281l-41.007812-23.675782c-4.640626-2.679687-10.359376-2.679687-15 0zm0 0" fill="#d3cdbf"/><path d="m150.125 8h-46.765625c-4.644531 0-8.9375 2.476562-11.257813 6.5l-23.382812 40.5c-2.324219 4.023438-2.324219 8.976562 0 13l4.039062 7 19.34375 33.5c2.320313 4.023438 6.613282 6.5 11.257813 6.5h46.761719c4.644531 0 8.9375-2.476562 11.261718-6.5l23.382813-40.5c2.320313-4.023438 2.320313-8.976562 0-13l-23.382813-40.5c-2.320312-4.023438-6.613281-6.5-11.257812-6.5zm0 0" fill="#fff9eb"/><path d="m184.765625 55-23.382813-40.5c-2.320312-4.023438-6.613281-6.5-11.257812-6.5h-27.136719l30.890625 53.5-30.890625 53.5h27.136719c4.644531 0 8.933594-2.476562 11.257812-6.5l23.382813-40.5c2.324219-4.023438 2.324219-8.976562 0-13zm0 0" fill="#e9e3d5"/><path d="m150.125 8h-46.765625c-4.644531 0-8.9375 2.476562-11.257813 6.5l-23.382812 40.5c-2.324219 4.023438-2.324219 8.976562 0 13l4.039062 7 19.34375 33.5c2.320313 4.023438 6.613282 6.5 11.257813 6.5h46.761719c4.644531 0 8.9375-2.476562 11.261718-6.5l23.382813-40.5c2.320313-4.023438 2.320313-8.976562 0-13l-23.382813-40.5c-2.320312-4.023438-6.613281-6.5-11.257812-6.5zm0 0" fill="#fff9eb"/><path d="m184.765625 55-23.382813-40.5c-2.320312-4.023438-6.613281-6.5-11.257812-6.5h-27.136719l30.890625 53.5-30.890625 53.5h27.136719c4.644531 0 8.933594-2.476562 11.257812-6.5l23.382813-40.5c2.324219-4.023438 2.324219-8.976562 0-13zm0 0" fill="#d3cdbf"/><path d="m99.914062 75h-46.765624c-4.644532 0-8.933594 2.476562-11.257813 6.5l-23.382813 40.5c-2.320312 4.023438-2.320312 8.976562 0 13l23.382813 40.5c2.324219 4.023438 6.613281 6.5 11.257813 6.5h46.765624c4.644532 0 8.9375-2.476562 11.257813-6.5l23.382813-40.5c2.324218-4.023438 2.324218-8.976562 0-13l-23.382813-40.5c-2.320313-4.023438-6.613281-6.5-11.257813-6.5zm0 0" fill="#fff9eb"/><path d="m134.554688 122-23.382813-40.5c-2.320313-4.023438-6.613281-6.5-11.257813-6.5h-27.136718l30.890625 53.5-30.890625 53.5h27.136718c4.644532 0 8.9375-2.476562 11.257813-6.5l23.382813-40.5c2.324218-4.023438 2.324218-8.976562 0-13zm0 0" fill="#d3cdbf"/><path d="m286.914062 75h-46.765624c-4.644532 0-8.933594 2.476562-11.257813 6.5l-23.382813 40.5c-2.320312 4.023438-2.320312 8.976562 0 13l23.382813 40.5c2.324219 4.023438 6.613281 6.5 11.257813 6.5h46.765624c4.644532 0 8.9375-2.476562 11.257813-6.5l23.382813-40.5c2.324218-4.023438 2.324218-8.976562 0-13l-23.382813-40.5c-2.320313-4.023438-6.613281-6.5-11.257813-6.5zm0 0" fill="#fff9eb"/><path d="m321.554688 122-23.382813-40.5c-2.320313-4.023438-6.613281-6.5-11.257813-6.5h-27.136718l22.230468 38.5c5.359376 9.28125 5.359376 20.71875 0 30l-22.230468 38.5h27.136718c4.644532 0 8.9375-2.476562 11.257813-6.5l23.382813-40.5c2.324218-4.023438 2.324218-8.976562 0-13zm0 0" fill="#d3cdbf"/><path d="m159.425781 199.625-61.519531-61.519531c-5.855469-5.855469-5.855469-15.351563 0-21.210938l61.519531-61.519531c5.855469-5.855469 15.355469-5.855469 21.210938 0l61.519531 61.519531c5.859375 5.859375 5.859375 15.355469 0 21.210938l-61.519531 61.519531c-5.855469 5.859375-15.355469 5.859375-21.210938 0zm0 0" fill="#fff9eb"/><path d="m180.636719 55.375c-5.855469-5.859375-15.355469-5.859375-21.210938 0l-10.609375 10.605469 40.304688 40.304687c11.71875 11.71875 11.71875 30.710938 0 42.429688l-40.304688 40.304687 10.609375 10.605469c5.855469 5.859375 15.355469 5.859375 21.210938 0l61.519531-61.519531c5.859375-5.859375 5.859375-15.355469 0-21.210938zm0 0" fill="#d3cdbf"/><path d="m317.558594 176-27.636719 301.074219c-1.335937 15.511719-14.320313 27.425781-29.890625 27.425781h-180c-15.570312 0-28.554688-11.914062-29.890625-27.425781l-27.636719-301.074219zm0 0" fill="#8b9ba9"/><path d="m287.433594 176c-.886719 9.652344-18.203125 198.296875-24.902344 271.246094-1.414062 15.441406-14.367188 27.253906-29.871094 27.253906h-182.628906v1.367188l.109375 1.207031c1.335937 15.511719 14.320313 27.425781 29.890625 27.425781h180c15.570312 0 28.554688-11.914062 29.890625-27.425781l27.636719-301.074219zm0 0" fill="#596775"/><path d="m317.558594 161h-295.054688c-8.285156 0-15 6.714844-15 15s6.714844 15 15 15h295.054688c8.285156 0 15-6.714844 15-15s-6.714844-15-15-15zm0 0" fill="#35404a"/><path d="m312.703125 310.945312c0-.003906 0-.011718 0-.015624l10.386719-113.140626c3.890625-.976562 7.46875-2.96875 10.378906-5.878906 4.25-4.25 6.589844-9.898437 6.589844-15.910156s-2.339844-11.660156-6.589844-15.910156c-3.792969-3.792969-8.703125-6.050782-13.988281-6.496094l8.570312-14.84375c3.648438-6.320312 3.648438-14.179688 0-20.5l-23.386719-40.5c-3.648437-6.320312-10.449218-10.25-17.75-10.25h-3.882812v-6.925781c0-8.011719-4.3125-15.480469-11.25-19.484375l-41.007812-23.675782c-6.9375-4.003906-15.558594-4.003906-22.5 0l-27.410157 15.824219c-.246093-.425781-12.769531-22.125-13.019531-22.546875-3.664062-6.289062-10.351562-10.691406-17.71875-10.691406h-46.765625c-7.300781 0-14.105469 4.429688-17.753906 10.75l-23.382813 40.5c-2.867187 4.96875-3.472656 10.878906-1.835937 16.25h-7.234375c-7.3125 0-14.113282 3.929688-17.75 10.25l-23.390625 40.5c-1.800781 3.109375-2.75 6.648438-2.75 10.25 0 3.589844.949219 7.140625 2.75 10.25l8.570312 14.84375c-5.285156.441406-10.199219 2.703125-13.992187 6.496094-4.238282 4.25-6.5781252 9.898437-6.589844 15.910156.0117188 6.011719 2.351562 11.660156 6.589844 15.910156 2.914062 2.910156 6.488281 4.902344 10.382812 5.878906l18.628906 202.945313c-.230468.722656-.351562 1.484375-.351562 2.265625 0 1.25.304688 2.460938.882812 3.535156l6.535157 71.179688c1.683593 19.546875 17.746093 34.285156 37.363281 34.285156h180c19.617188 0 35.679688-14.738281 37.359375-34.242188l6.730469-73.359374c0-.003907.003906-.007813.003906-.011719zm-179.855469 182.273438c.019532-.019531.042969-.039062.0625-.058594.023438-.019531.039063-.042968.058594-.066406l37.0625-37.0625 37.054688 37.058594c.023437.019531.042968.046875.066406.070312.023437.023438.046875.042969.070312.066406l3.773438 3.773438h-81.929688zm-76.414062-29.65625-3.667969-39.945312 21.804687 21.808593zm198.449218-113.59375-31.816406-31.820312 31.816406-31.816407 15.90625 15.898438c1.421876 1.417969 3.300782 2.199219 5.3125 2.199219 2 0 3.878907-.78125 5.300782-2.191407 2.917968-2.929687 2.917968-7.6875 0-10.605469l-15.917969-15.910156 13.796875-13.792968c2.921875-2.917969 2.921875-7.679688 0-10.597657-1.417969-1.421875-3.300781-2.199219-5.308594-2.199219-2 0-3.882812.777344-5.300781 2.199219l-13.789063 13.777344-31.808593-31.804687 31.808593-31.710938 48.367188 48.253906-5.230469 56.988282-6.007812 6.003906v.003906zm-127.28125 42.421875-31.816406-31.816406 31.820313-31.820313 31.820312 31.820313zm84.859376-84.851563-31.828126-31.820312 31.820313-31.820312 31.828125 31.820312zm-42.429688-42.429687-31.808594-31.808594 31.808594-31.710937 31.808594 31.710937zm-42.429688-21.210937 31.824219 31.824218-31.824219 31.816406-31.820312-31.820312zm-42.421874 42.429687 31.816406 31.820313-31.816406 31.820312-31.820313-31.824219zm84.851562 63.640625-31.816406-31.820312 31.816406-31.820313 31.816406 31.820313zm135-119.535156-2.125-2.117188c-.097656-.109375-.191406-.222656-.296875-.328125-.117187-.117187-.242187-.222656-.367187-.332031l-29.222657-29.15625h34.945313zm-92.574219-7.730469-24.28125-24.203125h48.5625zm-84.84375-.007813-24.195312-24.195312h48.464843zm-10.617187 10.597657-31.816406 31.816406-31.820313-31.8125 31.820313-31.820313zm-74.242188 10.609375 31.820313 31.8125-32.410157 32.414062-5.351562-58.289062zm42.425782 190.917968-34.558594-34.550781-6.429688-70.078125 30.378906 30.378906-13.25 13.25c-1.417968 1.417969-2.199218 3.300782-2.199218 5.300782 0 2.007812.78125 3.890625 2.199218 5.308594 1.421876 1.421874 3.300782 2.191406 5.300782 2.191406 2.011718 0 3.890625-.773438 5.3125-2.191406 0 0 0-.007813.007812-.007813l13.242188-13.242187 31.816406 31.820312zm84.851562-63.640624 31.820312 31.820312-31.820312 31.820312-31.824219-31.816406zm10.605469 74.246093 31.824219-31.824219 31.816406 31.824219-31.820313 31.820313zm31.824219-53.035156-31.824219-31.816406 31.820312-31.820313 31.820313 31.820313zm83.410156-62.199219-5.109375 55.660156-25.273438-25.273437zm-4.195313-244.941406 23.382813 40.5c.980468 1.695312.980468 3.804688 0 5.5l-12.84375 22.25h-178.304688l-20.699218-20.699219c-1.429688-1.429687-2.1875-3.273437-2.199219-5.300781.011719-2.039062.769531-3.871094 2.199219-5.300781l61.519531-61.519531c1.421875-1.429688 3.261719-2.191407 5.300781-2.199219 2.039062.007812 3.871094.769531 5.300781 2.199219l5.808594 5.808593c.070313.074219.140625.144531.214844.214844l55.496093 55.496094c1.429688 1.429687 2.1875 3.261719 2.199219 5.300781 0 1.710938-.558593 3.320312-1.609375 4.640625-2.570312 3.238281-2.019531 7.96875 1.21875 10.539063 1.34375 1.0625 2.953125 1.621093 4.652344 1.621093 2.308594 0 4.460938-1.039062 5.890625-2.839843 3.128906-3.960938 4.847656-8.921876 4.847656-13.960938.011719-5.921875-2.398437-11.722656-6.589843-15.910156l-17.296876-17.296875 5.222657-9.042969c.980469-1.695312 2.804687-2.75 4.761719-2.75h46.765624c1.957032 0 3.785157 1.054688 4.761719 2.75zm-75.898437-54.84375c2.3125-1.339844 5.1875-1.339844 7.5 0l41.003906 23.671875c2.3125 1.335937 3.75 3.824219 3.75 6.496094v6.925781h-27.882812c-7.300782 0-14.101563 3.929688-17.753907 10.25l-3.210937 5.5625-25.542969-25.542969c-.421875-2.292969-1.21875-4.507812-2.378906-6.519531l-2.898438-5.019531zm-190.777344 95.34375 23.382812-40.5c.988282-1.699219 2.808594-2.75 4.769532-2.75h19.601562.011719.015625 23.949219c4.132812 0 7.492187-3.359375 7.492187-7.5 0-4.128906-3.359375-7.5-7.492187-7.5h-19.640625l-1.875-3.25c-.980469-1.695312-.980469-3.804688 0-5.5l23.382812-40.5c.976563-1.695312 2.804688-2.75 4.761719-2.75h46.765625c.242188 0 .488281.015625.730469.046875 1.433593.191406 2.710937.925781 3.597656 2.0625.167969.214844.316406.433594.4375.640625l13.417969 23.242188.003906.007812c0 .011719.011719.011719.011719.019531l1.144531 1.988281c-5.71875.132813-11.289062 2.496094-15.347656 6.5625l-61.519532 61.519532c-4.191406 4.1875-6.601562 9.988281-6.589843 15.910156-.011719 5.921875 2.390625 11.71875 6.589843 15.910156l10.089844 10.089844h-64.84375l-12.847656-22.25c-.488281-.839844-.738281-1.769531-.738281-2.75 0-.960938.261719-1.910156.738281-2.75zm-2.5 42.75h295.0625c4.128906.011719 7.488281 3.371094 7.5 7.5-.011719 4.128906-3.371094 7.488281-7.5 7.5h-1.449219c-.007812 0-.011719 0-.019531 0h-61.207031c-.003907 0-.003907 0-.003907 0h-198c-4.140624 0-7.5 3.359375-7.5 7.5s3.359376 7.5 7.5 7.5h.019532 10.039062l-31.910156 31.910156-3.683594-40.097656c0-.007812 0-.015625-.003906-.027344-.015625-.183594-.046875-.363281-.078125-.546875-.011719-.066406-.015625-.136719-.03125-.203125-.03125-.164062-.074219-.320312-.117187-.476562-.023438-.085938-.042969-.175782-.066407-.261719-.035156-.105469-.074219-.210937-.113281-.316406-.046875-.132813-.089844-.261719-.144531-.390625-.015625-.039063-.035157-.078125-.054688-.113282-.972656-2.214843-2.96875-3.835937-5.34375-4.324218-.015625-.003906-.035156-.003906-.050781-.007813-.226562-.042969-.453125-.082031-.683594-.105469-.054687-.003906-.105468-.003906-.15625-.007812-.199218-.015625-.394531-.03125-.59375-.03125-.011718 0-.019531 0-.03125 0-.070312 0-.128906 0-.199218 0h-1.179688c-4.128906-.011719-7.488281-3.371094-7.5-7.5.011719-4.128906 3.371094-7.488281 7.5-7.5zm36.425781 313.785156 26.253907-26.257812 15.910156 15.910156c1.410156 1.421875 3.300781 2.203125 5.300781 2.203125s3.890625-.78125 5.300781-2.203125c1.421875-1.410156 2.199219-3.296875 2.199219-5.296875s-.777344-3.890625-2.199219-5.300781l-15.90625-15.914063 31.816406-31.824219 31.824219 31.824219-51.574219 51.574219h-27.820312c-9.699219 0-17.9375-6.011719-21.105469-14.714844zm201.105469 14.714844h-27.816406l-9.148438-9.148438 31.816406-31.824218 2.457032 2.460937c1.410156 1.410157 3.300781 2.191407 5.300781 2.191407s3.890625-.78125 5.300781-2.191407c1.421875-1.417969 2.199219-3.300781 2.199219-5.308593 0-2-.777344-3.878907-2.199219-5.300782l-2.453125-2.453125 6.074219-6.066406c2.921875-2.929687 2.921875-7.6875 0-10.609375-1.421875-1.421875-3.300781-2.199219-5.308594-2.199219-2 0-3.882812.777344-5.300781 2.199219l-6.070313 6.070312-31.820312-31.820312 31.820312-31.820312 34.097657 34.097656-6.53125 71.152344c-.0625.707031-.160157 1.40625-.28125 2.09375-.007813.050781-.019531.101562-.027344.152343-1.964844 10.589844-11.101563 18.324219-22.109375 18.324219zm0 0"/></svg>